<?xml version="1.0" encoding="UTF-8"?>
<svg xmlns="http://www.w3.org/2000/svg" xmlns:l="http://www.w3.org/1999/xlink" version="1.1" width="200mm" height="200mm" viewBox="0 0 200 200" color-profile="auto" color-interpolation="linearRGB" color-interpolation-filters="linearRGB"><g fill="none" stroke-miterlimit="9.98123" transform="matrix(100 0 0 -100 100 100)"><defs><path id="i1" d="M-1 -1L1 -1L1 1L-1 1Z"/></defs><defs><linearGradient gradientUnits="userSpaceOnUse" id="i2" x1="-1" y1="-1" x2="1" y2="1" ><stop offset="-1" stop-color="#0000FF"/><stop offset="1" stop-color="#FF0000"/></linearGradient></defs><use l:href="#i1" fill="url(#i2)"/><defs><path id="i3" d="M0.18 -0.21L0.18 -0.31M0.12 -0.21L0.12 -0.31M0.06 -0.21L0.06 -0.31M0 -0.21L0 -0.31M-0.06 -0.21L-0.06 -0.31M-0.12 -0.21L-0.12 -0.31M-0.18 -0.21L-0.18 -0.31M0.21 0.18L0.31 0.18M0.21 0.12L0.31 0.12M0.21 0.06L0.31 0.06M0.21 0L0.31 0M0.21 -0.06L0.31 -0.06M0.21 -0.12L0.31 -0.12M0.21 -0.18L0.31 -0.18M0.18 0.21L0.18 0.31M0.12 0.21L0.12 0.31M0.06 0.21L0.06 0.31M0 0.21L0 0.31M-0.06 0.21L-0.06 0.31M-0.12 0.21L-0.12 0.31M-0.18 0.21L-0.18 0.31M-0.21 0.18L-0.31 0.18M-0.21 0.12L-0.31 0.12M-0.21 0.06L-0.31 0.06M-0.21 0L-0.31 0M-0.21 -0.06L-0.31 -0.06M-0.21 -0.12L-0.31 -0.12M-0.21 -0.18L-0.31 -0.18M0.661441 -0.353548L0.771956 -0.462692M0.661441 -0.353548L0.81359 -0.3848M0.579758 -0.475795L0.666856 -0.604403M0.579758 -0.475795L0.722887 -0.536129M0.475795 -0.579758L0.536129 -0.722887M0.475795 -0.579758L0.604403 -0.666856M0.353548 -0.661441L0.3848 -0.81359M0.353548 -0.661441L0.462692 -0.771956M0.217714 -0.717705L0.218682 -0.873028M0.217714 -0.717705L0.303201 -0.84739M0.0735129 -0.746389L0.0441609 -0.898916M0.0735129 -0.746389L0.132057 -0.890259M-0.0735129 -0.746389L-0.132057 -0.890259M-0.0735129 -0.746389L-0.0441609 -0.898916M-0.217714 -0.717705L-0.303201 -0.84739M-0.217714 -0.717705L-0.218682 -0.873028M-0.353548 -0.661441L-0.462692 -0.771956M-0.353548 -0.661441L-0.3848 -0.81359M-0.475795 -0.579758L-0.604403 -0.666856M-0.475795 -0.579758L-0.536129 -0.722887M-0.579758 -0.475795L-0.722887 -0.536129M-0.579758 -0.475795L-0.666856 -0.604403M-0.661441 -0.353548L-0.81359 -0.3848M-0.661441 -0.353548L-0.771956 -0.462692M-0.717705 -0.217714L-0.873028 -0.218682M-0.717705 -0.217714L-0.84739 -0.303201M-0.746389 -0.0735129L-0.898916 -0.0441609M-0.746389 -0.0735129L-0.890259 -0.132057M-0.746389 0.0735129L-0.890259 0.132057M-0.746389 0.0735129L-0.898916 0.0441609M-0.717705 0.217714L-0.84739 0.303201M-0.717705 0.217714L-0.873028 0.218682M-0.661441 0.353548L-0.771956 0.462692M-0.661441 0.353548L-0.81359 0.3848M-0.579758 0.475795L-0.666856 0.604403M-0.579758 0.475795L-0.722887 0.536129M-0.475795 0.579758L-0.536129 0.722887M-0.475795 0.579758L-0.604403 0.666856M-0.353548 0.661441L-0.3848 0.81359M-0.353548 0.661441L-0.462692 0.771956M-0.217714 0.717705L-0.218682 0.873028M-0.217714 0.717705L-0.303201 0.84739M-0.0735129 0.746389L-0.0441609 0.898916M-0.0735129 0.746389L-0.132057 0.890259M0.0735129 0.746389L0.132057 0.890259M0.0735129 0.746389L0.0441609 0.898916M0.217714 0.717705L0.303201 0.84739M0.217714 0.717705L0.218682 0.873028M0.353548 0.661441L0.462692 0.771956M0.353548 0.661441L0.3848 0.81359M0.475795 0.579758L0.604403 0.666856M0.475795 0.579758L0.536129 0.722887M0.579758 0.475795L0.722887 0.536129M0.579758 0.475795L0.666856 0.604403M0.661441 0.353548L0.81359 0.3848M0.661441 0.353548L0.771956 0.462692M0.717705 0.217714L0.873028 0.218682M0.717705 0.217714L0.84739 0.303201M0.746389 0.0735129L0.898916 0.0441609M0.746389 0.0735129L0.890259 0.132057M0.746389 -0.0735129L0.890259 -0.132057M0.746389 -0.0735129L0.898916 -0.0441609M0.717705 -0.217714L0.84739 -0.303201M0.717705 -0.217714L0.873028 -0.218682M0.540455 -0.361121L0.579758 -0.475795M0.540455 -0.361121L0.661441 -0.353548M0.361121 -0.540455L0.353548 -0.661441M0.361121 -0.540455L0.475795 -0.579758M0.126809 -0.63751L0.0735129 -0.746389M0.126809 -0.63751L0.217714 -0.717705M-0.126809 -0.63751L-0.217714 -0.717705M-0.126809 -0.63751L-0.0735129 -0.746389M-0.361121 -0.540455L-0.475795 -0.579758M-0.361121 -0.540455L-0.353548 -0.661441M-0.540455 -0.361121L-0.661441 -0.353548M-0.540455 -0.361121L-0.579758 -0.475795M-0.63751 -0.126809L-0.746389 -0.0735129M-0.63751 -0.126809L-0.717705 -0.217714M-0.63751 0.126809L-0.717705 0.217714M-0.63751 0.126809L-0.746389 0.0735129M-0.540455 0.361121L-0.579758 0.475795M-0.540455 0.361121L-0.661441 0.353548M-0.361121 0.540455L-0.353548 0.661441M-0.361121 0.540455L-0.475795 0.579758M-0.126809 0.63751L-0.0735129 0.746389M-0.126809 0.63751L-0.217714 0.717705M0.126809 0.63751L0.217714 0.717705M0.126809 0.63751L0.0735129 0.746389M0.361121 0.540455L0.475795 0.579758M0.361121 0.540455L0.353548 0.661441M0.540455 0.361121L0.661441 0.353548M0.540455 0.361121L0.579758 0.475795M0.63751 0.126809L0.746389 0.0735129M0.63751 0.126809L0.717705 0.217714M0.63751 -0.126809L0.717705 -0.217714M0.63751 -0.126809L0.746389 -0.0735129M0.353553 -0.353553L0.361121 -0.540455M0.353553 -0.353553L0.540455 -0.361121M-9.18485e-17 -0.5L-0.126809 -0.63751M-9.18485e-17 -0.5L0.126809 -0.63751M-0.353553 -0.353553L-0.540455 -0.361121M-0.353553 -0.353553L-0.361121 -0.540455M-0.5 6.12323e-17L-0.63751 0.126809M-0.5 6.12323e-17L-0.63751 -0.126809M-0.353553 0.353553L-0.361121 0.540455M-0.353553 0.353553L-0.540455 0.361121M3.06162e-17 0.5L0.126809 0.63751M3.06162e-17 0.5L-0.126809 0.63751M0.353553 0.353553L0.540455 0.361121M0.353553 0.353553L0.361121 0.540455M0.5 0L0.63751 -0.126809M0.5 0L0.63751 0.126809M0.212132 -0.212132L0.353553 -0.353553M-5.51091e-17 -0.3L-9.18485e-17 -0.5M-0.212132 -0.212132L-0.353553 -0.353553M-0.3 3.67394e-17L-0.5 6.12323e-17M-0.212132 0.212132L-0.353553 0.353553M1.83697e-17 0.3L3.06162e-17 0.5M0.212132 0.212132L0.353553 0.353553M0.3 0L0.5 0M-0.21 -0.21L0.21 -0.21L0.21 0.21L-0.21 0.21Z"/></defs><use l:href="#i3" stroke-width="0.01" stroke="#FFFFFF"/></g></svg>