<?xml version="1.0" encoding="UTF-8" standalone="no"?>
<svg
   version="1.1"
   width="200mm"
   height="200mm"
   viewBox="-20 -20 240 240"
   color-profile="auto"
   color-interpolation="linearRGB"
   color-interpolation-filters="linearRGB"
   id="svg26"
   sodipodi:docname="logo_pull_final_path.svg"
   inkscape:version="1.1.1 (3bf5ae0d25, 2021-09-20)"
   xmlns:inkscape="http://www.inkscape.org/namespaces/inkscape"
   xmlns:sodipodi="http://sodipodi.sourceforge.net/DTD/sodipodi-0.dtd"
   xmlns:xlink="http://www.w3.org/1999/xlink"
   xmlns="http://www.w3.org/2000/svg"
   xmlns:svg="http://www.w3.org/2000/svg">
  <defs
     id="defs30" />
  <sodipodi:namedview
     id="namedview28"
     pagecolor="#ffffff"
     bordercolor="#666666"
     borderopacity="1.0"
     inkscape:pageshadow="2"
     inkscape:pageopacity="0.0"
     inkscape:pagecheckerboard="0"
     inkscape:document-units="mm"
     showgrid="false"
     inkscape:zoom="0.86584344"
     inkscape:cx="185.94586"
     inkscape:cy="353.99009"
     inkscape:window-width="1920"
     inkscape:window-height="1050"
     inkscape:window-x="0"
     inkscape:window-y="4"
     inkscape:window-maximized="1"
     inkscape:current-layer="svg26"
     inkscape:snap-object-midpoints="false"
     inkscape:snap-text-baseline="false"
     inkscape:snap-global="true" />
  <circle
     style="fill:#ffffff;fill-opacity:0;stroke:#ff0000;stroke-opacity:1"
     id="ellipse105729"
     cx="100"
     cy="-100"
     r="95"
     transform="rotate(90)" />
  <circle
     style="fill:#ffffff;fill-opacity:0;stroke:#ff0000;stroke-opacity:1"
     id="path105727"
     cx="-100"
     cy="-100"
     r="101"
     transform="matrix(0,-1,-1,0,0,0)" />
  <rect
     style="fill:#000080;stroke:#000080;stroke-width:4.99999;stroke-linecap:butt;stroke-linejoin:round;stroke-miterlimit:4;stroke-dasharray:none;stroke-opacity:0;paint-order:stroke markers fill"
     id="rect85663"
     width="240"
     height="240"
     x="-20"
     y="-20" />
  <g
     fill="none"
     stroke-miterlimit="9.98123"
     transform="matrix(100 0 0 -100 100 100)"
     id="g24"
     inkscape:export-filename="/home/emile/Projects/ocaml/logo_pull/g24.png"
     inkscape:export-xdpi="96"
     inkscape:export-ydpi="96"
     style="fill:#000080">
    <defs
       id="defs3">
      <path
         id="i1"
         d="M-1 -1L1 -1L1 1L-1 1Z" />
    </defs>
    <defs
       id="defs10">
      <linearGradient
         gradientUnits="userSpaceOnUse"
         id="i2"
         x1="-1"
         y1="-1"
         x2="1"
         y2="1">
        <stop
           offset="-1"
           stop-color="#0000FF"
           id="stop5" />
        <stop
           offset="1"
           stop-color="#FF0000"
           id="stop7" />
      </linearGradient>
    </defs>
    <defs
       id="defs15">
      <path
         id="i3"
         d="M0.180429 -0.2105L0.180429 -0.3105M0.120286 -0.2105L0.120286 -0.3105M0.0601429 -0.2105L0.0601429 -0.3105M-1.04083e-17 -0.2105L-1.04083e-17 -0.3105M-0.0601429 -0.2105L-0.0601429 -0.3105M-0.120286 -0.2105L-0.120286 -0.3105M-0.180429 -0.2105L-0.180429 -0.3105M0.2105 0.180429L0.3105 0.180429M0.2105 0.120286L0.3105 0.120286M0.2105 0.0601429L0.3105 0.0601429M0.2105 -1.04083e-17L0.3105 -1.04083e-17M0.2105 -0.0601429L0.3105 -0.0601429M0.2105 -0.120286L0.3105 -0.120286M0.2105 -0.180429L0.3105 -0.180429M0.180429 0.2105L0.180429 0.3105M0.120286 0.2105L0.120286 0.3105M0.0601429 0.2105L0.0601429 0.3105M-1.04083e-17 0.2105L-1.04083e-17 0.3105M-0.0601429 0.2105L-0.0601429 0.3105M-0.120286 0.2105L-0.120286 0.3105M-0.180429 0.2105L-0.180429 0.3105M-0.2105 0.180429L-0.3105 0.180429M-0.2105 0.120286L-0.3105 0.120286M-0.2105 0.0601429L-0.3105 0.0601429M-0.2105 -1.04083e-17L-0.3105 -1.04083e-17M-0.2105 -0.0601429L-0.3105 -0.0601429M-0.2105 -0.120286L-0.3105 -0.120286M-0.2105 -0.180429L-0.3105 -0.180429M-0.2105 -0.2105L0.2105 -0.2105L0.2105 0.2105L-0.2105 0.2105Z" />
    </defs>
    <use
       xlink:href="#i1"
       fill="url(#i2)"
       id="use12"
       style="fill:#000080" />
    <use
       xlink:href="#i3"
       stroke-width="0.01"
       stroke="#FFFFFF"
       id="use17"
       style="fill:#000080" />
    <defs
       id="defs20">
      <path
         id="i4"
         d="M0.723191 -0.342044L0.803902 -0.40465M0.723191 -0.342044L0.822789 -0.364717M0.686183 -0.411282L0.760368 -0.481498M0.686183 -0.411282L0.783078 -0.443608M0.642566 -0.476559L0.709512 -0.553708M0.642566 -0.476559L0.735826 -0.518227M0.592761 -0.537247L0.651822 -0.620586M0.592761 -0.537247L0.681488 -0.587856M0.537247 -0.592761L0.587856 -0.681488M0.537247 -0.592761L0.620586 -0.651822M0.476559 -0.642566L0.518227 -0.735826M0.476559 -0.642566L0.553708 -0.709512M0.411282 -0.686183L0.443608 -0.783078M0.411282 -0.686183L0.481498 -0.760368M0.342044 -0.723191L0.364717 -0.822789M0.342044 -0.723191L0.40465 -0.803902M0.269512 -0.753235L0.282314 -0.854575M0.269512 -0.753235L0.323906 -0.839694M0.194384 -0.776025L0.197191 -0.878132M0.194384 -0.776025L0.240041 -0.867398M0.117384 -0.791341L0.11017 -0.893232M0.117384 -0.791341L0.153866 -0.88675M0.0392541 -0.799036L0.0220871 -0.899729M0.0392541 -0.799036L0.0662081 -0.897561M-0.0392541 -0.799036L-0.0662081 -0.897561M-0.0392541 -0.799036L-0.0220871 -0.899729M-0.117384 -0.791341L-0.153866 -0.88675M-0.117384 -0.791341L-0.11017 -0.893232M-0.194384 -0.776025L-0.240041 -0.867398M-0.194384 -0.776025L-0.197191 -0.878132M-0.269512 -0.753235L-0.323906 -0.839694M-0.269512 -0.753235L-0.282314 -0.854575M-0.342044 -0.723191L-0.40465 -0.803902M-0.342044 -0.723191L-0.364717 -0.822789M-0.411282 -0.686183L-0.481498 -0.760368M-0.411282 -0.686183L-0.443608 -0.783078M-0.476559 -0.642566L-0.553708 -0.709512M-0.476559 -0.642566L-0.518227 -0.735826M-0.537247 -0.592761L-0.620586 -0.651822M-0.537247 -0.592761L-0.587856 -0.681488M-0.592761 -0.537247L-0.681488 -0.587856M-0.592761 -0.537247L-0.651822 -0.620586M-0.642566 -0.476559L-0.735826 -0.518227M-0.642566 -0.476559L-0.709512 -0.553708M-0.686183 -0.411282L-0.783078 -0.443608M-0.686183 -0.411282L-0.760368 -0.481498M-0.723191 -0.342044L-0.822789 -0.364717M-0.723191 -0.342044L-0.803902 -0.40465M-0.753235 -0.269512L-0.854575 -0.282314M-0.753235 -0.269512L-0.839694 -0.323906M-0.776025 -0.194384L-0.878132 -0.197191M-0.776025 -0.194384L-0.867398 -0.240041M-0.791341 -0.117384L-0.893232 -0.11017M-0.791341 -0.117384L-0.88675 -0.153866M-0.799036 -0.0392541L-0.899729 -0.0220871M-0.799036 -0.0392541L-0.897561 -0.0662081M-0.799036 0.0392541L-0.897561 0.0662081M-0.799036 0.0392541L-0.899729 0.0220871M-0.791341 0.117384L-0.88675 0.153866M-0.791341 0.117384L-0.893232 0.11017M-0.776025 0.194384L-0.867398 0.240041M-0.776025 0.194384L-0.878132 0.197191M-0.753235 0.269512L-0.839694 0.323906M-0.753235 0.269512L-0.854575 0.282314M-0.723191 0.342044L-0.803902 0.40465M-0.723191 0.342044L-0.822789 0.364717M-0.686183 0.411282L-0.760368 0.481498M-0.686183 0.411282L-0.783078 0.443608M-0.642566 0.476559L-0.709512 0.553708M-0.642566 0.476559L-0.735826 0.518227M-0.592761 0.537247L-0.651822 0.620586M-0.592761 0.537247L-0.681488 0.587856M-0.537247 0.592761L-0.587856 0.681488M-0.537247 0.592761L-0.620586 0.651822M-0.476559 0.642566L-0.518227 0.735826M-0.476559 0.642566L-0.553708 0.709512M-0.411282 0.686183L-0.443608 0.783078M-0.411282 0.686183L-0.481498 0.760368M-0.342044 0.723191L-0.364717 0.822789M-0.342044 0.723191L-0.40465 0.803902M-0.269512 0.753235L-0.282314 0.854575M-0.269512 0.753235L-0.323906 0.839694M-0.194384 0.776025L-0.197191 0.878132M-0.194384 0.776025L-0.240041 0.867398M-0.117384 0.791341L-0.11017 0.893232M-0.117384 0.791341L-0.153866 0.88675M-0.0392541 0.799036L-0.0220871 0.899729M-0.0392541 0.799036L-0.0662081 0.897561M0.0392541 0.799036L0.0662081 0.897561M0.0392541 0.799036L0.0220871 0.899729M0.117384 0.791341L0.153866 0.88675M0.117384 0.791341L0.11017 0.893232M0.194384 0.776025L0.240041 0.867398M0.194384 0.776025L0.197191 0.878132M0.269512 0.753235L0.323906 0.839694M0.269512 0.753235L0.282314 0.854575M0.342044 0.723191L0.40465 0.803902M0.342044 0.723191L0.364717 0.822789M0.411282 0.686183L0.481498 0.760368M0.411282 0.686183L0.443608 0.783078M0.476559 0.642566L0.553708 0.709512M0.476559 0.642566L0.518227 0.735826M0.537247 0.592761L0.620586 0.651822M0.537247 0.592761L0.587856 0.681488M0.592761 0.537247L0.681488 0.587856M0.592761 0.537247L0.651822 0.620586M0.642566 0.476559L0.735826 0.518227M0.642566 0.476559L0.709512 0.553708M0.686183 0.411282L0.783078 0.443608M0.686183 0.411282L0.760368 0.481498M0.723191 0.342044L0.822789 0.364717M0.723191 0.342044L0.803902 0.40465M0.753235 0.269512L0.854575 0.282314M0.753235 0.269512L0.839694 0.323906M0.776025 0.194384L0.878132 0.197191M0.776025 0.194384L0.867398 0.240041M0.791341 0.117384L0.893232 0.11017M0.791341 0.117384L0.88675 0.153866M0.799036 0.0392541L0.899729 0.0220871M0.799036 0.0392541L0.897561 0.0662081M0.799036 -0.0392541L0.897561 -0.0662081M0.799036 -0.0392541L0.899729 -0.0220871M0.791341 -0.117384L0.88675 -0.153866M0.791341 -0.117384L0.893232 -0.11017M0.776025 -0.194384L0.867398 -0.240041M0.776025 -0.194384L0.878132 -0.197191M0.753235 -0.269512L0.839694 -0.323906M0.753235 -0.269512L0.854575 -0.282314M0.617345 -0.329978L0.686183 -0.411282M0.617345 -0.329978L0.723191 -0.342044M0.541107 -0.444075L0.592761 -0.537247M0.541107 -0.444075L0.642566 -0.476559M0.444075 -0.541107L0.476559 -0.642566M0.444075 -0.541107L0.537247 -0.592761M0.329978 -0.617345L0.342044 -0.723191M0.329978 -0.617345L0.411282 -0.686183M0.203199 -0.669858L0.194384 -0.776025M0.203199 -0.669858L0.269512 -0.753235M0.068612 -0.696629L0.0392541 -0.799036M0.068612 -0.696629L0.117384 -0.791341M-0.068612 -0.696629L-0.117384 -0.791341M-0.068612 -0.696629L-0.0392541 -0.799036M-0.203199 -0.669858L-0.269512 -0.753235M-0.203199 -0.669858L-0.194384 -0.776025M-0.329978 -0.617345L-0.411282 -0.686183M-0.329978 -0.617345L-0.342044 -0.723191M-0.444075 -0.541107L-0.537247 -0.592761M-0.444075 -0.541107L-0.476559 -0.642566M-0.541107 -0.444075L-0.642566 -0.476559M-0.541107 -0.444075L-0.592761 -0.537247M-0.617345 -0.329978L-0.723191 -0.342044M-0.617345 -0.329978L-0.686183 -0.411282M-0.669858 -0.203199L-0.776025 -0.194384M-0.669858 -0.203199L-0.753235 -0.269512M-0.696629 -0.068612L-0.799036 -0.0392541M-0.696629 -0.068612L-0.791341 -0.117384M-0.696629 0.068612L-0.791341 0.117384M-0.696629 0.068612L-0.799036 0.0392541M-0.669858 0.203199L-0.753235 0.269512M-0.669858 0.203199L-0.776025 0.194384M-0.617345 0.329978L-0.686183 0.411282M-0.617345 0.329978L-0.723191 0.342044M-0.541107 0.444075L-0.592761 0.537247M-0.541107 0.444075L-0.642566 0.476559M-0.444075 0.541107L-0.476559 0.642566M-0.444075 0.541107L-0.537247 0.592761M-0.329978 0.617345L-0.342044 0.723191M-0.329978 0.617345L-0.411282 0.686183M-0.203199 0.669858L-0.194384 0.776025M-0.203199 0.669858L-0.269512 0.753235M-0.068612 0.696629L-0.0392541 0.799036M-0.068612 0.696629L-0.117384 0.791341M0.068612 0.696629L0.117384 0.791341M0.068612 0.696629L0.0392541 0.799036M0.203199 0.669858L0.269512 0.753235M0.203199 0.669858L0.194384 0.776025M0.329978 0.617345L0.411282 0.686183M0.329978 0.617345L0.342044 0.723191M0.444075 0.541107L0.537247 0.592761M0.444075 0.541107L0.476559 0.642566M0.541107 0.444075L0.642566 0.476559M0.541107 0.444075L0.592761 0.537247M0.617345 0.329978L0.723191 0.342044M0.617345 0.329978L0.686183 0.411282M0.669858 0.203199L0.776025 0.194384M0.669858 0.203199L0.753235 0.269512M0.696629 0.068612L0.799036 0.0392541M0.696629 0.068612L0.791341 0.117384M0.696629 -0.068612L0.791341 -0.117384M0.696629 -0.068612L0.799036 -0.0392541M0.669858 -0.203199L0.753235 -0.269512M0.669858 -0.203199L0.776025 -0.194384M0.498882 -0.333342L0.541107 -0.444075M0.498882 -0.333342L0.617345 -0.329978M0.333342 -0.498882L0.329978 -0.617345M0.333342 -0.498882L0.444075 -0.541107M0.117054 -0.588471L0.068612 -0.696629M0.117054 -0.588471L0.203199 -0.669858M-0.117054 -0.588471L-0.203199 -0.669858M-0.117054 -0.588471L-0.068612 -0.696629M-0.333342 -0.498882L-0.444075 -0.541107M-0.333342 -0.498882L-0.329978 -0.617345M-0.498882 -0.333342L-0.617345 -0.329978M-0.498882 -0.333342L-0.541107 -0.444075M-0.588471 -0.117054L-0.696629 -0.068612M-0.588471 -0.117054L-0.669858 -0.203199M-0.588471 0.117054L-0.669858 0.203199M-0.588471 0.117054L-0.696629 0.068612M-0.498882 0.333342L-0.541107 0.444075M-0.498882 0.333342L-0.617345 0.329978M-0.333342 0.498882L-0.329978 0.617345M-0.333342 0.498882L-0.444075 0.541107M-0.117054 0.588471L-0.068612 0.696629M-0.117054 0.588471L-0.203199 0.669858M0.117054 0.588471L0.203199 0.669858M0.117054 0.588471L0.068612 0.696629M0.333342 0.498882L0.444075 0.541107M0.333342 0.498882L0.329978 0.617345M0.498882 0.333342L0.617345 0.329978M0.498882 0.333342L0.541107 0.444075M0.588471 0.117054L0.696629 0.068612M0.588471 0.117054L0.669858 0.203199M0.588471 -0.117054L0.669858 -0.203199M0.588471 -0.117054L0.696629 -0.068612M0.353553 -0.353553L0.333342 -0.498882M0.353553 -0.353553L0.498882 -0.333342M-9.18485e-17 -0.5L-0.117054 -0.588471M-9.18485e-17 -0.5L0.117054 -0.588471M-0.353553 -0.353553L-0.498882 -0.333342M-0.353553 -0.353553L-0.333342 -0.498882M-0.5 6.12323e-17L-0.588471 0.117054M-0.5 6.12323e-17L-0.588471 -0.117054M-0.353553 0.353553L-0.333342 0.498882M-0.353553 0.353553L-0.498882 0.333342M3.06162e-17 0.5L0.117054 0.588471M3.06162e-17 0.5L-0.117054 0.588471M0.353553 0.353553L0.498882 0.333342M0.353553 0.353553L0.333342 0.498882M0.5 0L0.588471 -0.117054M0.5 0L0.588471 0.117054M0.212132 -0.212132L0.353553 -0.353553M-5.51091e-17 -0.3L-9.18485e-17 -0.5M-0.212132 -0.212132L-0.353553 -0.353553M-0.3 3.67394e-17L-0.5 6.12323e-17M-0.212132 0.212132L-0.353553 0.353553M1.83697e-17 0.3L3.06162e-17 0.5M0.212132 0.212132L0.353553 0.353553M0.3 0L0.5 0" />
    </defs>
    <use
       xlink:href="#i4"
       stroke-width="0.01"
       stroke-linecap="round"
       stroke="#FFFFFF"
       id="use22"
       style="fill:#000080" />
  </g>
  <g
     aria-label="ENS PARIS-SACLAY"
     id="text31038"
     style="font-size:9.87778px;line-height:1.5;font-family:'Fira Code';-inkscape-font-specification:'Fira Code, Normal';text-align:center;letter-spacing:2.11667px;text-anchor:middle;fill:#ffffff;stroke:#000080;stroke-width:5;stroke-linejoin:round;paint-order:stroke markers fill">
    <path
       d="m 39.723799,18.60517 -2.355322,1.823212 1.438725,1.858621 2.042882,-1.581357 0.4434,0.572808 -2.042882,1.581357 1.516243,1.958763 2.507537,-1.941039 0.430997,0.556786 -3.20452,2.48056 -4.269664,-5.51578 3.132418,-2.424748 z"
       id="path1137" />
    <path
       d="m 44.006791,15.755059 q 0.02196,0.03406 0.08112,0.116458 0.05916,0.0824 0.173497,0.231684 0.826031,1.11282 1.273475,1.806754 l 1.894088,2.937508 -0.685419,0.441954 -3.779941,-5.862245 1.000456,-0.645088 5.436815,3.823514 -0.214673,-0.295542 Q 48.375136,17.229781 47.85632,16.425159 l -1.891343,-2.933251 0.685419,-0.441954 3.779941,5.862245 -1.034514,0.667048 z"
       id="path1139" />
    <path
       d="m 56.873568,13.135994 q 0.281759,0.532895 0.230903,1.086945 -0.04874,0.547203 -0.438495,1.045508 -0.385273,0.495936 -1.088336,0.867669 -0.667238,0.352791 -1.324593,0.442506 -0.659722,0.08524 -1.255053,-0.08704 l 0.186589,-0.763336 q 0.503967,0.140366 1.010405,0.09034 0.508548,-0.05688 1.050399,-0.343371 0.385117,-0.203624 0.645723,-0.501855 0.258238,-0.30271 0.320314,-0.662142 0.05971,-0.36391 -0.136813,-0.735593 -0.163373,-0.308989 -0.393197,-0.451054 -0.225346,-0.144432 -0.601661,-0.151741 -0.378683,-0.01179 -0.994448,0.113237 -0.760094,0.155497 -1.308379,0.158893 -0.550652,-0.0011 -0.963204,-0.206972 -0.408073,-0.208258 -0.659052,-0.682938 -0.241508,-0.456767 -0.180152,-0.947608 0.06347,-0.497687 0.409208,-0.938342 0.347851,-0.447501 0.930005,-0.7553056 0.617979,-0.3267461 1.187368,-0.3986006 0.571499,-0.0787 1.154733,0.059864 l -0.189214,0.7475342 q -0.467113,-0.114012 -0.921151,-0.05158 -0.454039,0.06244 -0.861547,0.277899 -0.344814,0.182315 -0.572477,0.434478 -0.225553,0.245317 -0.282328,0.538916 -0.0523,0.291231 0.103974,0.586786 0.144431,0.273165 0.387175,0.385478 0.242744,0.112313 0.656994,0.09384 0.414251,-0.01848 1.113504,-0.158997 0.640524,-0.132386 1.136924,-0.125539 0.494033,0.0024 0.923158,0.239606 0.426758,0.232759 0.722724,0.792522 z"
       id="path1141" />
    <path
       d="m 71.727596,4.1929372 q 0.358541,1.1085307 -0.163877,1.8471571 -0.519157,0.7322478 -1.714442,1.1188479 L 69.00101,7.4333036 69.797593,9.8961696 68.958966,10.167413 66.8124,3.5306881 68.508934,2.9819654 q 1.219383,-0.3943945 2.054562,-0.1001896 0.83362,0.2893853 1.1641,1.3111614 z M 70.83425,4.4925267 Q 70.59886,3.7647522 70.073543,3.5726345 69.553046,3.3789579 68.825272,3.6143475 l -0.95912,0.3102154 0.916616,2.8339829 0.925382,-0.2993034 Q 70.469662,6.2129408 70.779712,5.755958 71.093023,5.2925967 70.83425,4.4925267 Z"
       id="path1143" />
    <path
       d="m 80.495995,6.9843366 -0.9413,-1.6080177 -2.690569,0.6183641 -0.144801,1.8576326 -0.844197,0.1940188 0.649335,-7.30631299 1.095974,-0.2518841 3.77406,6.28969969 z m -3.277639,-5.6449425 -0.295457,3.8933287 2.246255,-0.516249 z"
       id="path1145" />
    <path
       d="M 88.377335,0.61942858 Q 88.481429,1.361865 88.083825,1.9188886 87.685518,2.4708957 86.959072,2.7620052 l 2.476455,2.7780974 -1.043425,0.1462938 -2.301861,-2.7002749 -0.933062,0.1308205 0.415672,2.9647293 -0.872865,0.1223804 -0.968493,-6.90766859 1.775827,-0.24898094 q 1.279198,-0.17935067 2.005282,0.22012561 0.7311,0.39877296 0.864733,1.3519008 z m -0.933062,0.1308205 Q 87.352136,0.09309251 86.930092,-0.14440877 86.51236,-0.38762985 85.70471,-0.27439275 l -1.003293,0.1406672 0.360108,2.56842875 1.003293,-0.1406672 q 0.772535,-0.1083138 1.125229,-0.474898 0.35199,-0.3716007 0.254226,-1.06888892 z"
       id="path1147" />
    <path
       d="m 92.480621,-1.7212476 3.985938,-0.2132118 0.03761,0.7031032 -1.547839,0.082796 0.29736,5.5590681 1.547839,-0.082796 0.03761,0.7031033 -3.985937,0.2132118 -0.03761,-0.7031033 1.547839,-0.082795 -0.29736,-5.5590681 -1.547839,0.082795 z"
       id="path1149" />
    <path
       d="m 105.49476,3.1940154 q -0.019,0.6024998 -0.33739,1.0587421 -0.31321,0.4513385 -0.89852,0.6913964 -0.58024,0.2402172 -1.37514,0.2152125 -0.75439,-0.023731 -1.36997,-0.2711562 -0.61543,-0.2524888 -1.04744,-0.6968612 l 0.53997,-0.5709064 q 0.36842,0.3714196 0.83323,0.5786262 0.47003,0.2023028 1.08266,0.221574 0.43542,0.013697 0.80948,-0.1164415 0.37422,-0.1352013 0.60607,-0.416786 0.23201,-0.2866477 0.24523,-0.7068787 0.011,-0.3493486 -0.11839,-0.5865479 -0.12431,-0.23704 -0.44768,-0.4296611 -0.3232,-0.1976841 -0.92012,-0.3938425 -0.73742,-0.2411221 -1.21551,-0.5095628 -0.47793,-0.27350368 -0.73448,-0.65660852 -0.25149,-0.38294557 -0.23461,-0.91962609 0.0162,-0.51642843 0.31252,-0.91255149 0.30149,-0.4010268 0.82002,-0.612777 0.52376,-0.2166541 1.18195,-0.1959495 0.6987,0.021979 1.22901,0.2413817 0.53553,0.2144993 0.97371,0.6235898 l -0.53442,0.55587663 q -0.34944,-0.33027835 -0.77486,-0.50076963 -0.42542,-0.1704913 -0.88616,-0.1849845 -0.38985,-0.012263 -0.71248,0.094152 -0.31741,0.1015121 -0.51207,0.32851833 -0.1896,0.22716554 -0.20011,0.56132511 -0.01,0.30884445 0.14561,0.52658795 0.15533,0.21774349 0.52442,0.40673497 0.36909,0.18899149 1.04623,0.41301324 0.62208,0.2020178 1.05001,0.4536768 0.4281,0.2465959 0.68354,0.6651419 0.2556,0.413483 0.23569,1.0463614 z"
       id="path1151" />
    <path
       d="m 113.55391,3.1094777 -4.03476,-0.4743562 0.0864,-0.7345083 4.03477,0.4743561 z"
       id="path1153" />
    <path
       d="m 122.0338,5.555227 q -0.12182,0.5903605 -0.51366,0.9853528 -0.38586,0.3910549 -1.00362,0.5273667 -0.6128,0.1373355 -1.39168,-0.023383 -0.73919,-0.1525287 -1.30333,-0.5016873 -0.56312,-0.3541195 -0.91267,-0.8658897 l 0.62973,-0.4700382 q 0.29939,0.4290081 0.72187,0.7127291 0.42846,0.2797836 1.02874,0.4036492 0.42665,0.088037 0.81746,0.023857 0.39184,-0.069141 0.66848,-0.3068763 0.27766,-0.2426967 0.36262,-0.6544608 0.0706,-0.3423099 -0.0162,-0.5981559 -0.0819,-0.2548223 -0.36751,-0.4999582 -0.28459,-0.2500968 -0.83912,-0.5455505 -0.68525,-0.3638049 -1.11033,-0.7101291 -0.42405,-0.3512852 -0.61123,-0.7726553 -0.18222,-0.4203464 -0.0737,-0.9462138 0.10442,-0.50602335 0.46413,-0.84557816 0.3657,-0.34349214 0.91282,-0.46334579 0.55312,-0.12379097 1.19805,0.00928777 0.68462,0.14126819 1.16954,0.44821907 0.4909,0.30301354 0.85259,0.78108031 l -0.6217,0.4561788 q -0.28774,-0.3852252 -0.6777,-0.6260297 -0.38995,-0.24080439 -0.8414,-0.33395951 -0.382,-0.0788236 -0.71809,-0.0292123 -0.3301,0.045674 -0.56075,0.23600431 -0.22568,0.1913541 -0.29325,0.5187809 -0.0624,0.3026218 0.0533,0.5437422 0.11576,0.2411204 0.44704,0.4905083 0.33129,0.249388 0.96008,0.5860257 0.57831,0.3055331 0.95684,0.6267374 0.37956,0.3162433 0.55958,0.7723405 0.18104,0.4511362 0.0531,1.0712629 z"
       id="path1155" />
    <path
       d="m 129.07124,9.5102206 -0.0248,-1.863102 -2.64515,-0.7903866 -1.04292,1.5440468 -0.82995,-0.2479929 4.17136,-6.033541 1.07748,0.3219556 0.17736,7.3329657 z m -0.0639,-6.5271896 -2.17884,3.2400599 2.20834,0.6598641 z"
       id="path1157" />
    <path
       d="m 138.13893,5.2761665 q 0.6122,0.2425958 0.97916,0.5678185 0.37354,0.3223796 0.64977,0.8078053 l -0.66767,0.3511331 q -0.38418,-0.7080118 -1.17063,-1.019654 -0.56511,-0.2239346 -1.11699,-0.1374973 -0.54718,0.088303 -1.05074,0.5753018 -0.49885,0.4888644 -0.87394,1.4354265 -0.36762,0.927725 -0.34845,1.6218628 0.0192,0.6941378 0.35076,1.1361148 0.3363,0.443844 0.91554,0.673377 0.49447,0.195942 0.90552,0.189914 0.41104,-0.006 0.81605,-0.134321 l 0.21109,0.704807 q -0.45654,0.189602 -1.0134,0.192337 -0.55685,0.0027 -1.20673,-0.254789 -0.80058,-0.317241 -1.28615,-0.961902 -0.48086,-0.642795 -0.5496,-1.5418352 -0.0622,-0.9018828 0.35771,-1.9614672 0.41801,-1.0548752 1.08862,-1.6609338 0.67247,-0.610768 1.45654,-0.7468674 0.78593,-0.1408086 1.55354,0.1633691 z"
       id="path1159" />
    <path
       d="m 144.51246,16.020689 -3.54239,-1.772826 3.12172,-6.2376888 0.7882,0.3944652 -2.77032,5.5355516 2.84478,1.423702 z"
       id="path1161" />
    <path
       d="m 151.24917,19.972557 0.4551,-1.806835 -2.35294,-1.444022 -1.40491,1.223926 -0.73826,-0.453078 5.58263,-4.757942 0.95845,0.588207 -1.71431,7.131968 z m 1.61674,-6.324117 -2.93876,2.570796 1.96438,1.205561 z"
       id="path1163" />
    <path
       d="m 162.812,19.611691 -4.44151,2.046025 -1.59886,2.163015 -0.71694,-0.529943 1.59284,-2.154869 0.6592,-4.854441 0.78211,0.57812 -0.5908,3.909728 3.58073,-1.699623 z"
       id="path1165" />
  </g>
  <g
     aria-label="A0
⊤⊥"
     transform="scale(1.0934157,0.91456525)"
     id="text2498"
     style="font-weight:300;font-size:27.9902px;line-height:0.75;font-family:'Fira Code';-inkscape-font-specification:'Fira Code, Light';fill:#ffffff;stroke-width:0.437348">
    <path
       d="m 88.887268,109.65562 -1.736828,-5.2679 h -8.411414 l -1.736828,5.2679 h -1.722474 l 6.531047,-19.722329 h 2.425817 l 6.545401,19.722329 z M 82.973441,91.641411 79.356246,102.72266 h 7.191328 z"
       id="path1186" />
    <path
       d="m 100.25555,89.660566 q 3.07175,0 4.66504,2.612419 1.59329,2.598065 1.59329,7.521469 0,4.952116 -1.59329,7.550176 -1.59329,2.59807 -4.66504,2.59807 -3.057387,0 -4.665029,-2.59807 -1.593289,-2.61242 -1.593289,-7.550176 0,-4.923404 1.593289,-7.521469 1.607642,-2.612419 4.665029,-2.612419 z m -4.220057,10.133888 q 0,3.416236 0.631574,5.468856 l 6.373153,-12.688892 q -1.00478,-1.363625 -2.78467,-1.363625 -1.995195,0 -3.114803,2.11003 -1.105254,2.095677 -1.105254,6.473631 z m 4.220057,8.583666 q 2.00956,0 3.11481,-2.09568 1.11961,-2.11003 1.11961,-6.487986 0,-3.688965 -0.70334,-5.74158 L 97.413472,106.8853 q 1.004776,1.49282 2.842078,1.49282 z"
       id="path1188" />
    <path
       d="M 75.495034,115.72016 H 90.56668 v 1.66506 h -6.76071 v 10.96641 h -1.550226 v -10.96641 h -6.76071 z"
       id="path1190" />
    <path
       d="m 101.03067,116.29432 v 10.96641 h 6.76071 v 1.66506 H 92.719731 v -1.66506 h 6.76071 v -10.96641 z"
       id="path1192" />
  </g>
  <g
     inkscape:groupmode="layer"
     id="layer1"
     inkscape:label="Layer 1" />
  <g
     inkscape:groupmode="layer"
     id="layer2"
     inkscape:label="Layer 2">
    <text
       xml:space="preserve"
       style="font-style:normal;font-variant:normal;font-weight:normal;font-stretch:normal;font-size:9.46666px;line-height:0.85;font-family:'Fira Code';-inkscape-font-specification:'Fira Code';fill:#ffffff;stroke-width:0.25357"
       id="text43291"
       x="75.440283"
       y="35.551127"><tspan
         id="tspan43289"
         style="font-style:normal;font-variant:normal;font-weight:normal;font-stretch:normal;font-size:9.46666px;font-family:'Fira Code';-inkscape-font-specification:'Fira Code';fill:#ffffff;stroke-width:0.25357" /></text>
  </g>
  <text
     xml:space="preserve"
     style="font-size:19.7556px;line-height:0.85;font-family:sans-serif;stroke-width:0.264583"
     x="189.9729"
     y="102.20871"
     id="text65229"><tspan
       sodipodi:role="line"
       id="tspan65227"
       style="stroke-width:0.264583" /></text>
  <g
     aria-label="INFORMATIQUE"
     id="text8438"
     style="font-size:9.87778px;line-height:0.85;font-family:'Fira Code';-inkscape-font-specification:'Fira Code, Normal';text-align:center;letter-spacing:2.11667px;text-anchor:middle;fill:#ffffff;stroke:#000080;stroke-width:5;stroke-linejoin:round;paint-order:stroke fill markers">
    <path
       d="m 56.741882,183.53043 3.581268,1.76286 -0.310961,0.63172 -1.390696,-0.68456 -2.458608,4.99469 1.390696,0.68456 -0.310961,0.63172 -3.581269,-1.76286 0.310961,-0.63172 1.390696,0.68456 2.458608,-4.99468 -1.390696,-0.68457 z"
       id="path1213" />
    <path
       d="m 63.805773,187.7311 q -0.01487,0.0377 -0.04735,0.13379 -0.03247,0.0961 -0.08713,0.27602 -0.422769,1.31984 -0.725833,2.08789 l -1.282905,3.25125 -0.758627,-0.29934 2.560233,-6.48838 1.107313,0.43693 0.06211,6.64638 0.115021,-0.3467 q 0.405042,-1.28871 0.756446,-2.17927 l 1.281047,-3.24655 0.758626,0.29935 -2.560233,6.48838 -1.145008,-0.45181 z"
       id="path1215" />
    <path
       d="m 74.75908,191.37733 -2.99611,-0.90738 -0.707695,2.33677 2.61796,0.79286 -0.205555,0.67873 -2.61796,-0.79286 -0.900036,2.97187 -0.833869,-0.25253 2.021777,-6.6758 3.931789,1.19075 z"
       id="path1217" />
    <path
       d="m 81.857612,195.87076 q -0.226326,1.04977 -0.68434,1.78013 -0.453063,0.73143 -1.112577,1.05043 -0.659514,0.319 -1.471601,0.14392 -0.812088,-0.17508 -1.283708,-0.72759 -0.471621,-0.5525 -0.589078,-1.40175 -0.111438,-0.85313 0.118091,-1.91776 0.226326,-1.04977 0.680456,-1.78615 0.459082,-0.73532 1.119663,-1.05927 0.660582,-0.32395 1.472669,-0.14887 0.812088,0.17508 1.282641,0.73254 0.470553,0.55746 0.580923,1.41554 0.11639,0.8542 -0.113139,1.91883 z m -0.901219,-0.1943 q 0.302124,-1.40135 0.06748,-2.18777 -0.229689,-0.78535 -1.071487,-0.96684 -0.841798,-0.18149 -1.380698,0.44334 -0.533949,0.6259 -0.836073,2.02725 -0.298921,1.38649 -0.05826,2.16902 0.24066,0.78254 1.067603,0.96083 0.841798,0.18148 1.373611,-0.43451 0.536765,-0.61493 0.837822,-2.01132 z"
       id="path1219" />
    <path
       d="m 89.727223,195.46751 q -0.09789,0.74328 -0.629767,1.17394 -0.531217,0.42564 -1.309014,0.51225 l 1.644925,3.33839 -1.04461,-0.13757 -1.497443,-3.21679 -0.934123,-0.12302 -0.39089,2.9681 -0.873856,-0.11509 0.910754,-6.91551 1.777846,0.23413 q 1.280651,0.16866 1.873737,0.74748 0.598108,0.57947 0.472441,1.53369 z m -0.934122,-0.12303 q 0.08664,-0.6579 -0.256679,-0.99945 -0.33764,-0.34591 -1.146208,-0.4524 l -1.004433,-0.13228 -0.338639,2.57135 1.004433,0.13228 q 0.773413,0.10185 1.211171,-0.15727 0.438419,-0.26414 0.530355,-0.96223 z"
       id="path1221" />
    <path
       d="m 97.528707,194.02165 0.04426,6.98627 -0.844876,-0.0425 -0.0346,-3.64845 q -0.0068,-0.97416 0.05681,-2.23894 l 0.0145,-0.28837 -1.420774,4.85339 -0.880289,-0.0443 -1.01267,-4.97578 q -8.9e-5,0.30432 -0.04207,1.13907 -0.043,0.855 -0.0945,1.37482 l -0.370634,3.63822 -0.824639,-0.0415 0.744967,-6.94658 1.224311,0.0616 0.888256,4.8275 1.317526,-4.71657 z"
       id="path1223" />
    <path
       d="m 104.94817,200.89868 -0.60953,-1.76075 -2.75951,0.0816 -0.50439,1.7937 -0.86583,0.0256 2.06212,-7.03928 1.12406,-0.0333 2.47461,6.90508 z m -2.1135,-6.17587 -1.04926,3.76089 2.30381,-0.0681 z"
       id="path1225" />
    <path
       d="m 113.05196,193.92316 -2.10459,0.23248 0.68298,6.18286 -0.87103,0.0962 -0.68299,-6.18286 -2.16501,0.23915 -0.0829,-0.7502 5.23127,-0.57786 z"
       id="path1227" />
    <path
       d="m 116.02718,192.68701 3.91883,-0.75886 0.13386,0.69127 -1.52178,0.29468 1.05836,5.46549 1.52178,-0.29468 0.13386,0.69126 -3.91884,0.75886 -0.13386,-0.69127 1.52178,-0.29468 -1.05835,-5.46549 -1.52178,0.29469 z"
       id="path1229" />
    <path
       d="m 128.82114,193.22759 q 0.31544,1.12682 0.2071,1.99879 -0.10346,0.87061 -0.73158,1.48304 0.50399,-0.0411 0.88758,0.0514 0.38496,0.0974 0.70299,0.35028 0.3229,0.25152 0.62667,0.69777 l -0.79435,0.60111 q -0.36894,-0.49113 -0.72443,-0.7651 -0.34924,-0.27045 -0.78513,-0.34306 -0.42964,-0.0691 -0.99549,0.0893 -0.76097,0.21302 -1.41498,-0.0563 -0.65538,-0.27418 -1.14918,-0.96707 -0.49029,-0.69913 -0.78251,-1.74302 -0.2895,-1.03414 -0.22642,-1.8987 0.0631,-0.86456 0.49626,-1.45925 0.43808,-0.59605 1.23319,-0.81863 0.79999,-0.22395 1.47625,0.0496 0.67626,0.2736 1.17904,0.97975 0.50141,0.70128 0.79499,1.75005 z m -0.87804,0.2458 q -0.38508,-1.3756 -0.96434,-1.9604 -0.58064,-0.58967 -1.4099,-0.35753 -0.82926,0.23214 -1.01935,1.03757 -0.19009,0.80543 0.19636,2.1859 0.38098,1.36097 0.96513,1.9444 0.58765,0.57719 1.40228,0.34915 0.83414,-0.23351 1.02208,-1.02782 0.19146,-0.80055 -0.19226,-2.17127 z"
       id="path1231" />
    <path
       d="m 136.45556,191.8227 q 0.24456,0.66027 0.16505,1.26231 -0.0795,0.60205 -0.46973,1.06529 -0.38546,0.46148 -1.04098,0.70428 -0.66027,0.24456 -1.25334,0.14552 -0.58832,-0.1008 -1.03608,-0.50755 -0.44301,-0.40851 -0.68757,-1.06878 l -1.63802,-4.4224 0.81703,-0.30262 1.64858,4.4509 q 0.27271,0.73627 0.75371,0.98486 0.48576,0.24682 1.13178,0.008 0.65077,-0.24104 0.85379,-0.74298 0.20777,-0.5037 -0.0649,-1.23997 l -1.64858,-4.4509 0.83128,-0.3079 z"
       id="path1233" />
    <path
       d="m 141.89109,185.03087 -2.69941,1.2589 0.99341,2.13015 2.34133,-1.0919 0.30616,0.65649 -2.34133,1.0919 1.04694,2.24492 2.87386,-1.34025 0.2976,0.63812 -3.67267,1.71278 -2.94813,-6.32158 3.59004,-1.67424 z"
       id="path1235" />
  </g>
  <text
     xml:space="preserve"
     style="font-size:19.7556px;line-height:0.85;font-family:sans-serif;stroke-width:0.264583"
     x="5.7136521"
     y="183.00868"
     id="text20560"><tspan
       sodipodi:role="line"
       id="tspan20558"
       style="stroke-width:0.264583"
       x="5.7136521"
       y="183.00868" /></text>
  <text
     xml:space="preserve"
     style="font-size:19.7556px;line-height:0.85;font-family:sans-serif;stroke-width:0.264583"
     x="-26.184902"
     y="164.47363"
     id="text22682"><tspan
       sodipodi:role="line"
       id="tspan22680"
       style="stroke-width:0.264583" /></text>
</svg>
