<?xml version="1.0" encoding="UTF-8" standalone="no"?>
<svg
   version="1.1"
   width="200mm"
   height="200mm"
   viewBox="-20 -20 240 240"
   color-profile="auto"
   color-interpolation="linearRGB"
   color-interpolation-filters="linearRGB"
   id="svg26"
   sodipodi:docname="logo_pull_texte_final.svg"
   inkscape:version="1.1.1 (3bf5ae0d25, 2021-09-20)"
   xmlns:inkscape="http://www.inkscape.org/namespaces/inkscape"
   xmlns:sodipodi="http://sodipodi.sourceforge.net/DTD/sodipodi-0.dtd"
   xmlns:xlink="http://www.w3.org/1999/xlink"
   xmlns="http://www.w3.org/2000/svg"
   xmlns:svg="http://www.w3.org/2000/svg">
  <defs
     id="defs30" />
  <sodipodi:namedview
     id="namedview28"
     pagecolor="#ffffff"
     bordercolor="#666666"
     borderopacity="1.0"
     inkscape:pageshadow="2"
     inkscape:pageopacity="0.0"
     inkscape:pagecheckerboard="0"
     inkscape:document-units="mm"
     showgrid="false"
     inkscape:zoom="0.86584344"
     inkscape:cx="187.67827"
     inkscape:cy="262.17211"
     inkscape:window-width="1920"
     inkscape:window-height="1053"
     inkscape:window-x="0"
     inkscape:window-y="0"
     inkscape:window-maximized="1"
     inkscape:current-layer="svg26"
     inkscape:snap-object-midpoints="false"
     inkscape:snap-text-baseline="false"
     inkscape:snap-global="true" />
  <circle
     style="fill:#ffffff;fill-opacity:0;stroke:#ff0000;stroke-opacity:1"
     id="ellipse105729"
     cx="100"
     cy="-100"
     r="95"
     transform="rotate(90)" />
  <circle
     style="fill:#ffffff;fill-opacity:0;stroke:#ff0000;stroke-opacity:1"
     id="path105727"
     cx="-100"
     cy="-100"
     r="101"
     transform="matrix(0,-1,-1,0,0,0)" />
  <rect
     style="fill:#000080;stroke:#000080;stroke-width:4.99999;stroke-linecap:butt;stroke-linejoin:round;stroke-miterlimit:4;stroke-dasharray:none;stroke-opacity:0;paint-order:stroke markers fill"
     id="rect85663"
     width="240"
     height="240"
     x="-20"
     y="-20" />
  <g
     fill="none"
     stroke-miterlimit="9.98123"
     transform="matrix(100 0 0 -100 100 100)"
     id="g24"
     inkscape:export-filename="/home/emile/Projects/ocaml/logo_pull/g24.png"
     inkscape:export-xdpi="96"
     inkscape:export-ydpi="96"
     style="fill:#000080">
    <defs
       id="defs3">
      <path
         id="i1"
         d="M-1 -1L1 -1L1 1L-1 1Z" />
    </defs>
    <defs
       id="defs10">
      <linearGradient
         gradientUnits="userSpaceOnUse"
         id="i2"
         x1="-1"
         y1="-1"
         x2="1"
         y2="1">
        <stop
           offset="-1"
           stop-color="#0000FF"
           id="stop5" />
        <stop
           offset="1"
           stop-color="#FF0000"
           id="stop7" />
      </linearGradient>
    </defs>
    <defs
       id="defs15">
      <path
         id="i3"
         d="M0.180429 -0.2105L0.180429 -0.3105M0.120286 -0.2105L0.120286 -0.3105M0.0601429 -0.2105L0.0601429 -0.3105M-1.04083e-17 -0.2105L-1.04083e-17 -0.3105M-0.0601429 -0.2105L-0.0601429 -0.3105M-0.120286 -0.2105L-0.120286 -0.3105M-0.180429 -0.2105L-0.180429 -0.3105M0.2105 0.180429L0.3105 0.180429M0.2105 0.120286L0.3105 0.120286M0.2105 0.0601429L0.3105 0.0601429M0.2105 -1.04083e-17L0.3105 -1.04083e-17M0.2105 -0.0601429L0.3105 -0.0601429M0.2105 -0.120286L0.3105 -0.120286M0.2105 -0.180429L0.3105 -0.180429M0.180429 0.2105L0.180429 0.3105M0.120286 0.2105L0.120286 0.3105M0.0601429 0.2105L0.0601429 0.3105M-1.04083e-17 0.2105L-1.04083e-17 0.3105M-0.0601429 0.2105L-0.0601429 0.3105M-0.120286 0.2105L-0.120286 0.3105M-0.180429 0.2105L-0.180429 0.3105M-0.2105 0.180429L-0.3105 0.180429M-0.2105 0.120286L-0.3105 0.120286M-0.2105 0.0601429L-0.3105 0.0601429M-0.2105 -1.04083e-17L-0.3105 -1.04083e-17M-0.2105 -0.0601429L-0.3105 -0.0601429M-0.2105 -0.120286L-0.3105 -0.120286M-0.2105 -0.180429L-0.3105 -0.180429M-0.2105 -0.2105L0.2105 -0.2105L0.2105 0.2105L-0.2105 0.2105Z" />
    </defs>
    <use
       xlink:href="#i1"
       fill="url(#i2)"
       id="use12"
       style="fill:#000080" />
    <use
       xlink:href="#i3"
       stroke-width="0.01"
       stroke="#FFFFFF"
       id="use17"
       style="fill:#000080" />
    <defs
       id="defs20">
      <path
         id="i4"
         d="M0.723191 -0.342044L0.803902 -0.40465M0.723191 -0.342044L0.822789 -0.364717M0.686183 -0.411282L0.760368 -0.481498M0.686183 -0.411282L0.783078 -0.443608M0.642566 -0.476559L0.709512 -0.553708M0.642566 -0.476559L0.735826 -0.518227M0.592761 -0.537247L0.651822 -0.620586M0.592761 -0.537247L0.681488 -0.587856M0.537247 -0.592761L0.587856 -0.681488M0.537247 -0.592761L0.620586 -0.651822M0.476559 -0.642566L0.518227 -0.735826M0.476559 -0.642566L0.553708 -0.709512M0.411282 -0.686183L0.443608 -0.783078M0.411282 -0.686183L0.481498 -0.760368M0.342044 -0.723191L0.364717 -0.822789M0.342044 -0.723191L0.40465 -0.803902M0.269512 -0.753235L0.282314 -0.854575M0.269512 -0.753235L0.323906 -0.839694M0.194384 -0.776025L0.197191 -0.878132M0.194384 -0.776025L0.240041 -0.867398M0.117384 -0.791341L0.11017 -0.893232M0.117384 -0.791341L0.153866 -0.88675M0.0392541 -0.799036L0.0220871 -0.899729M0.0392541 -0.799036L0.0662081 -0.897561M-0.0392541 -0.799036L-0.0662081 -0.897561M-0.0392541 -0.799036L-0.0220871 -0.899729M-0.117384 -0.791341L-0.153866 -0.88675M-0.117384 -0.791341L-0.11017 -0.893232M-0.194384 -0.776025L-0.240041 -0.867398M-0.194384 -0.776025L-0.197191 -0.878132M-0.269512 -0.753235L-0.323906 -0.839694M-0.269512 -0.753235L-0.282314 -0.854575M-0.342044 -0.723191L-0.40465 -0.803902M-0.342044 -0.723191L-0.364717 -0.822789M-0.411282 -0.686183L-0.481498 -0.760368M-0.411282 -0.686183L-0.443608 -0.783078M-0.476559 -0.642566L-0.553708 -0.709512M-0.476559 -0.642566L-0.518227 -0.735826M-0.537247 -0.592761L-0.620586 -0.651822M-0.537247 -0.592761L-0.587856 -0.681488M-0.592761 -0.537247L-0.681488 -0.587856M-0.592761 -0.537247L-0.651822 -0.620586M-0.642566 -0.476559L-0.735826 -0.518227M-0.642566 -0.476559L-0.709512 -0.553708M-0.686183 -0.411282L-0.783078 -0.443608M-0.686183 -0.411282L-0.760368 -0.481498M-0.723191 -0.342044L-0.822789 -0.364717M-0.723191 -0.342044L-0.803902 -0.40465M-0.753235 -0.269512L-0.854575 -0.282314M-0.753235 -0.269512L-0.839694 -0.323906M-0.776025 -0.194384L-0.878132 -0.197191M-0.776025 -0.194384L-0.867398 -0.240041M-0.791341 -0.117384L-0.893232 -0.11017M-0.791341 -0.117384L-0.88675 -0.153866M-0.799036 -0.0392541L-0.899729 -0.0220871M-0.799036 -0.0392541L-0.897561 -0.0662081M-0.799036 0.0392541L-0.897561 0.0662081M-0.799036 0.0392541L-0.899729 0.0220871M-0.791341 0.117384L-0.88675 0.153866M-0.791341 0.117384L-0.893232 0.11017M-0.776025 0.194384L-0.867398 0.240041M-0.776025 0.194384L-0.878132 0.197191M-0.753235 0.269512L-0.839694 0.323906M-0.753235 0.269512L-0.854575 0.282314M-0.723191 0.342044L-0.803902 0.40465M-0.723191 0.342044L-0.822789 0.364717M-0.686183 0.411282L-0.760368 0.481498M-0.686183 0.411282L-0.783078 0.443608M-0.642566 0.476559L-0.709512 0.553708M-0.642566 0.476559L-0.735826 0.518227M-0.592761 0.537247L-0.651822 0.620586M-0.592761 0.537247L-0.681488 0.587856M-0.537247 0.592761L-0.587856 0.681488M-0.537247 0.592761L-0.620586 0.651822M-0.476559 0.642566L-0.518227 0.735826M-0.476559 0.642566L-0.553708 0.709512M-0.411282 0.686183L-0.443608 0.783078M-0.411282 0.686183L-0.481498 0.760368M-0.342044 0.723191L-0.364717 0.822789M-0.342044 0.723191L-0.40465 0.803902M-0.269512 0.753235L-0.282314 0.854575M-0.269512 0.753235L-0.323906 0.839694M-0.194384 0.776025L-0.197191 0.878132M-0.194384 0.776025L-0.240041 0.867398M-0.117384 0.791341L-0.11017 0.893232M-0.117384 0.791341L-0.153866 0.88675M-0.0392541 0.799036L-0.0220871 0.899729M-0.0392541 0.799036L-0.0662081 0.897561M0.0392541 0.799036L0.0662081 0.897561M0.0392541 0.799036L0.0220871 0.899729M0.117384 0.791341L0.153866 0.88675M0.117384 0.791341L0.11017 0.893232M0.194384 0.776025L0.240041 0.867398M0.194384 0.776025L0.197191 0.878132M0.269512 0.753235L0.323906 0.839694M0.269512 0.753235L0.282314 0.854575M0.342044 0.723191L0.40465 0.803902M0.342044 0.723191L0.364717 0.822789M0.411282 0.686183L0.481498 0.760368M0.411282 0.686183L0.443608 0.783078M0.476559 0.642566L0.553708 0.709512M0.476559 0.642566L0.518227 0.735826M0.537247 0.592761L0.620586 0.651822M0.537247 0.592761L0.587856 0.681488M0.592761 0.537247L0.681488 0.587856M0.592761 0.537247L0.651822 0.620586M0.642566 0.476559L0.735826 0.518227M0.642566 0.476559L0.709512 0.553708M0.686183 0.411282L0.783078 0.443608M0.686183 0.411282L0.760368 0.481498M0.723191 0.342044L0.822789 0.364717M0.723191 0.342044L0.803902 0.40465M0.753235 0.269512L0.854575 0.282314M0.753235 0.269512L0.839694 0.323906M0.776025 0.194384L0.878132 0.197191M0.776025 0.194384L0.867398 0.240041M0.791341 0.117384L0.893232 0.11017M0.791341 0.117384L0.88675 0.153866M0.799036 0.0392541L0.899729 0.0220871M0.799036 0.0392541L0.897561 0.0662081M0.799036 -0.0392541L0.897561 -0.0662081M0.799036 -0.0392541L0.899729 -0.0220871M0.791341 -0.117384L0.88675 -0.153866M0.791341 -0.117384L0.893232 -0.11017M0.776025 -0.194384L0.867398 -0.240041M0.776025 -0.194384L0.878132 -0.197191M0.753235 -0.269512L0.839694 -0.323906M0.753235 -0.269512L0.854575 -0.282314M0.617345 -0.329978L0.686183 -0.411282M0.617345 -0.329978L0.723191 -0.342044M0.541107 -0.444075L0.592761 -0.537247M0.541107 -0.444075L0.642566 -0.476559M0.444075 -0.541107L0.476559 -0.642566M0.444075 -0.541107L0.537247 -0.592761M0.329978 -0.617345L0.342044 -0.723191M0.329978 -0.617345L0.411282 -0.686183M0.203199 -0.669858L0.194384 -0.776025M0.203199 -0.669858L0.269512 -0.753235M0.068612 -0.696629L0.0392541 -0.799036M0.068612 -0.696629L0.117384 -0.791341M-0.068612 -0.696629L-0.117384 -0.791341M-0.068612 -0.696629L-0.0392541 -0.799036M-0.203199 -0.669858L-0.269512 -0.753235M-0.203199 -0.669858L-0.194384 -0.776025M-0.329978 -0.617345L-0.411282 -0.686183M-0.329978 -0.617345L-0.342044 -0.723191M-0.444075 -0.541107L-0.537247 -0.592761M-0.444075 -0.541107L-0.476559 -0.642566M-0.541107 -0.444075L-0.642566 -0.476559M-0.541107 -0.444075L-0.592761 -0.537247M-0.617345 -0.329978L-0.723191 -0.342044M-0.617345 -0.329978L-0.686183 -0.411282M-0.669858 -0.203199L-0.776025 -0.194384M-0.669858 -0.203199L-0.753235 -0.269512M-0.696629 -0.068612L-0.799036 -0.0392541M-0.696629 -0.068612L-0.791341 -0.117384M-0.696629 0.068612L-0.791341 0.117384M-0.696629 0.068612L-0.799036 0.0392541M-0.669858 0.203199L-0.753235 0.269512M-0.669858 0.203199L-0.776025 0.194384M-0.617345 0.329978L-0.686183 0.411282M-0.617345 0.329978L-0.723191 0.342044M-0.541107 0.444075L-0.592761 0.537247M-0.541107 0.444075L-0.642566 0.476559M-0.444075 0.541107L-0.476559 0.642566M-0.444075 0.541107L-0.537247 0.592761M-0.329978 0.617345L-0.342044 0.723191M-0.329978 0.617345L-0.411282 0.686183M-0.203199 0.669858L-0.194384 0.776025M-0.203199 0.669858L-0.269512 0.753235M-0.068612 0.696629L-0.0392541 0.799036M-0.068612 0.696629L-0.117384 0.791341M0.068612 0.696629L0.117384 0.791341M0.068612 0.696629L0.0392541 0.799036M0.203199 0.669858L0.269512 0.753235M0.203199 0.669858L0.194384 0.776025M0.329978 0.617345L0.411282 0.686183M0.329978 0.617345L0.342044 0.723191M0.444075 0.541107L0.537247 0.592761M0.444075 0.541107L0.476559 0.642566M0.541107 0.444075L0.642566 0.476559M0.541107 0.444075L0.592761 0.537247M0.617345 0.329978L0.723191 0.342044M0.617345 0.329978L0.686183 0.411282M0.669858 0.203199L0.776025 0.194384M0.669858 0.203199L0.753235 0.269512M0.696629 0.068612L0.799036 0.0392541M0.696629 0.068612L0.791341 0.117384M0.696629 -0.068612L0.791341 -0.117384M0.696629 -0.068612L0.799036 -0.0392541M0.669858 -0.203199L0.753235 -0.269512M0.669858 -0.203199L0.776025 -0.194384M0.498882 -0.333342L0.541107 -0.444075M0.498882 -0.333342L0.617345 -0.329978M0.333342 -0.498882L0.329978 -0.617345M0.333342 -0.498882L0.444075 -0.541107M0.117054 -0.588471L0.068612 -0.696629M0.117054 -0.588471L0.203199 -0.669858M-0.117054 -0.588471L-0.203199 -0.669858M-0.117054 -0.588471L-0.068612 -0.696629M-0.333342 -0.498882L-0.444075 -0.541107M-0.333342 -0.498882L-0.329978 -0.617345M-0.498882 -0.333342L-0.617345 -0.329978M-0.498882 -0.333342L-0.541107 -0.444075M-0.588471 -0.117054L-0.696629 -0.068612M-0.588471 -0.117054L-0.669858 -0.203199M-0.588471 0.117054L-0.669858 0.203199M-0.588471 0.117054L-0.696629 0.068612M-0.498882 0.333342L-0.541107 0.444075M-0.498882 0.333342L-0.617345 0.329978M-0.333342 0.498882L-0.329978 0.617345M-0.333342 0.498882L-0.444075 0.541107M-0.117054 0.588471L-0.068612 0.696629M-0.117054 0.588471L-0.203199 0.669858M0.117054 0.588471L0.203199 0.669858M0.117054 0.588471L0.068612 0.696629M0.333342 0.498882L0.444075 0.541107M0.333342 0.498882L0.329978 0.617345M0.498882 0.333342L0.617345 0.329978M0.498882 0.333342L0.541107 0.444075M0.588471 0.117054L0.696629 0.068612M0.588471 0.117054L0.669858 0.203199M0.588471 -0.117054L0.669858 -0.203199M0.588471 -0.117054L0.696629 -0.068612M0.353553 -0.353553L0.333342 -0.498882M0.353553 -0.353553L0.498882 -0.333342M-9.18485e-17 -0.5L-0.117054 -0.588471M-9.18485e-17 -0.5L0.117054 -0.588471M-0.353553 -0.353553L-0.498882 -0.333342M-0.353553 -0.353553L-0.333342 -0.498882M-0.5 6.12323e-17L-0.588471 0.117054M-0.5 6.12323e-17L-0.588471 -0.117054M-0.353553 0.353553L-0.333342 0.498882M-0.353553 0.353553L-0.498882 0.333342M3.06162e-17 0.5L0.117054 0.588471M3.06162e-17 0.5L-0.117054 0.588471M0.353553 0.353553L0.498882 0.333342M0.353553 0.353553L0.333342 0.498882M0.5 0L0.588471 -0.117054M0.5 0L0.588471 0.117054M0.212132 -0.212132L0.353553 -0.353553M-5.51091e-17 -0.3L-9.18485e-17 -0.5M-0.212132 -0.212132L-0.353553 -0.353553M-0.3 3.67394e-17L-0.5 6.12323e-17M-0.212132 0.212132L-0.353553 0.353553M1.83697e-17 0.3L3.06162e-17 0.5M0.212132 0.212132L0.353553 0.353553M0.3 0L0.5 0" />
    </defs>
    <use
       xlink:href="#i4"
       stroke-width="0.01"
       stroke-linecap="round"
       stroke="#FFFFFF"
       id="use22"
       style="fill:#000080" />
  </g>
  <text
     xml:space="preserve"
     style="font-style:normal;font-variant:normal;font-weight:normal;font-stretch:normal;font-size:9.87778px;line-height:1.5;font-family:'Fira Code';-inkscape-font-specification:'Fira Code, Normal';font-variant-ligatures:normal;font-variant-caps:normal;font-variant-numeric:normal;font-variant-east-asian:normal;text-align:center;letter-spacing:2.11667px;text-anchor:middle;fill:#ffffff;fill-rule:nonzero;stroke:#000080;stroke-width:5;stroke-miterlimit:4;stroke-dasharray:none;paint-order:stroke markers fill;stroke-linecap:butt;stroke-linejoin:round"
     id="text31038"><textPath
       xlink:href="#ellipse105729"
       startOffset="50%"
       id="textPath62584">ENS PARIS-SACLAY</textPath></text>
  <text
     xml:space="preserve"
     style="font-style:normal;font-variant:normal;font-weight:300;font-stretch:normal;font-size:27.9902px;line-height:0.75;font-family:'Fira Code';-inkscape-font-specification:'Fira Code, Light';fill:#ffffff;fill-opacity:1;stroke:none;stroke-width:0.437348;font-variant-ligatures:normal;font-variant-caps:normal;font-variant-numeric:normal;font-variant-east-asian:normal"
     x="74.418488"
     y="109.65562"
     id="text2498"
     transform="scale(1.0934157,0.91456525)"><tspan
       sodipodi:role="line"
       id="tspan2496"
       style="font-style:normal;font-variant:normal;font-weight:300;font-stretch:normal;font-size:27.99020038px;font-family:'Fira Code';-inkscape-font-specification:'Fira Code, Light';fill:#ffffff;stroke-width:0.437348;font-variant-ligatures:normal;font-variant-caps:normal;font-variant-numeric:normal;font-variant-east-asian:normal"
       x="74.418488"
       y="109.65562">A0</tspan><tspan
       sodipodi:role="line"
       style="font-style:normal;font-variant:normal;font-weight:300;font-stretch:normal;font-size:27.99020038px;font-family:'Fira Code';-inkscape-font-specification:'Fira Code, Light';fill:#ffffff;stroke-width:0.437348;font-variant-ligatures:normal;font-variant-caps:normal;font-variant-numeric:normal;font-variant-east-asian:normal"
       x="74.418488"
       y="130.64827"
       id="tspan3418">⊤⊥</tspan></text>
  <g
     inkscape:groupmode="layer"
     id="layer1"
     inkscape:label="Layer 1" />
  <g
     inkscape:groupmode="layer"
     id="layer2"
     inkscape:label="Layer 2">
    <text
       xml:space="preserve"
       style="font-style:normal;font-variant:normal;font-weight:normal;font-stretch:normal;font-size:9.46666px;line-height:0.85;font-family:'Fira Code';-inkscape-font-specification:'Fira Code';fill:#ffffff;stroke-width:0.25357"
       id="text43291"
       x="75.440283"
       y="35.551127"><tspan
         id="tspan43289"
         style="font-style:normal;font-variant:normal;font-weight:normal;font-stretch:normal;font-size:9.46666px;font-family:'Fira Code';-inkscape-font-specification:'Fira Code';fill:#ffffff;stroke-width:0.25357" /></text>
  </g>
  <text
     xml:space="preserve"
     style="font-size:19.7556px;line-height:0.85;font-family:sans-serif;stroke-width:0.264583"
     x="189.9729"
     y="102.20871"
     id="text65229"><tspan
       sodipodi:role="line"
       id="tspan65227"
       style="stroke-width:0.264583" /></text>
  <text
     xml:space="preserve"
     style="font-style:normal;font-variant:normal;font-weight:normal;font-stretch:normal;font-size:9.87778px;line-height:0.85;font-family:'Fira Code';-inkscape-font-specification:'Fira Code, Normal';text-align:center;letter-spacing:2.11667px;text-anchor:middle;fill:#ffffff;stroke:#000080;stroke-width:5;stroke-miterlimit:4;stroke-dasharray:none;stroke-opacity:1;paint-order:stroke fill markers;stroke-linejoin:round;font-variant-ligatures:normal;font-variant-caps:normal;font-variant-numeric:normal;font-variant-east-asian:normal"
     id="text8438"><textPath
       xlink:href="#path105727"
       startOffset="50%"
       id="textPath59427">INFORMATIQUE</textPath></text>
  <text
     xml:space="preserve"
     style="font-size:19.7556px;line-height:0.85;font-family:sans-serif;stroke-width:0.264583"
     x="5.7136521"
     y="183.00868"
     id="text20560"><tspan
       sodipodi:role="line"
       id="tspan20558"
       style="stroke-width:0.264583"
       x="5.7136521"
       y="183.00868" /></text>
  <text
     xml:space="preserve"
     style="font-size:19.7556px;line-height:0.85;font-family:sans-serif;stroke-width:0.264583"
     x="-26.184902"
     y="164.47363"
     id="text22682"><tspan
       sodipodi:role="line"
       id="tspan22680"
       style="stroke-width:0.264583" /></text>
</svg>
