<?xml version="1.0" encoding="UTF-8" standalone="no"?>
<svg
   version="1.1"
   width="200mm"
   height="200mm"
   viewBox="0 0 200 200"
   color-profile="auto"
   color-interpolation="linearRGB"
   color-interpolation-filters="linearRGB"
   id="svg26"
   sodipodi:docname="logo_pull_texte_texte_rond.svg"
   inkscape:version="1.1 (c4e8f9ed74, 2021-05-24)"
   xmlns:inkscape="http://www.inkscape.org/namespaces/inkscape"
   xmlns:sodipodi="http://sodipodi.sourceforge.net/DTD/sodipodi-0.dtd"
   xmlns:xlink="http://www.w3.org/1999/xlink"
   xmlns="http://www.w3.org/2000/svg"
   xmlns:svg="http://www.w3.org/2000/svg">
  <defs
     id="defs30" />
  <sodipodi:namedview
     id="namedview28"
     pagecolor="#ffffff"
     bordercolor="#666666"
     borderopacity="1.0"
     inkscape:pageshadow="2"
     inkscape:pageopacity="0.0"
     inkscape:pagecheckerboard="0"
     inkscape:document-units="mm"
     showgrid="false"
     inkscape:zoom="0.81845007"
     inkscape:cx="441.07761"
     inkscape:cy="505.83415"
     inkscape:window-width="1920"
     inkscape:window-height="1053"
     inkscape:window-x="0"
     inkscape:window-y="0"
     inkscape:window-maximized="1"
     inkscape:current-layer="svg26"
     inkscape:snap-object-midpoints="false"
     inkscape:snap-text-baseline="false"
     inkscape:snap-global="true" />
  <circle
     style="fill:#ffffff;fill-opacity:0;stroke:#ff0000;stroke-opacity:1"
     id="path105727"
     cx="32.752445"
     cy="137.57645"
     r="76"
     transform="matrix(-0.52411997,0.85164444,0.85164444,0.52411997,0,0)" />
  <circle
     style="fill:#ffffff;fill-opacity:0;stroke:#ff0000;stroke-opacity:1"
     id="ellipse105729"
     cx="-141.40138"
     cy="-2.3774512"
     r="70"
     transform="rotate(-135.96326)" />
  <g
     fill="none"
     stroke-miterlimit="9.98123"
     transform="matrix(100 0 0 -100 100 100)"
     id="g24"
     inkscape:export-filename="/home/emile/Projects/ocaml/logo_pull/g24.png"
     inkscape:export-xdpi="96"
     inkscape:export-ydpi="96"
     style="fill:#000080">
    <defs
       id="defs3">
      <path
         id="i1"
         d="M-1 -1L1 -1L1 1L-1 1Z" />
    </defs>
    <defs
       id="defs10">
      <linearGradient
         gradientUnits="userSpaceOnUse"
         id="i2"
         x1="-1"
         y1="-1"
         x2="1"
         y2="1">
        <stop
           offset="-1"
           stop-color="#0000FF"
           id="stop5" />
        <stop
           offset="1"
           stop-color="#FF0000"
           id="stop7" />
      </linearGradient>
    </defs>
    <defs
       id="defs15">
      <path
         id="i3"
         d="M0.180429 -0.2105L0.180429 -0.3105M0.120286 -0.2105L0.120286 -0.3105M0.0601429 -0.2105L0.0601429 -0.3105M-1.04083e-17 -0.2105L-1.04083e-17 -0.3105M-0.0601429 -0.2105L-0.0601429 -0.3105M-0.120286 -0.2105L-0.120286 -0.3105M-0.180429 -0.2105L-0.180429 -0.3105M0.2105 0.180429L0.3105 0.180429M0.2105 0.120286L0.3105 0.120286M0.2105 0.0601429L0.3105 0.0601429M0.2105 -1.04083e-17L0.3105 -1.04083e-17M0.2105 -0.0601429L0.3105 -0.0601429M0.2105 -0.120286L0.3105 -0.120286M0.2105 -0.180429L0.3105 -0.180429M0.180429 0.2105L0.180429 0.3105M0.120286 0.2105L0.120286 0.3105M0.0601429 0.2105L0.0601429 0.3105M-1.04083e-17 0.2105L-1.04083e-17 0.3105M-0.0601429 0.2105L-0.0601429 0.3105M-0.120286 0.2105L-0.120286 0.3105M-0.180429 0.2105L-0.180429 0.3105M-0.2105 0.180429L-0.3105 0.180429M-0.2105 0.120286L-0.3105 0.120286M-0.2105 0.0601429L-0.3105 0.0601429M-0.2105 -1.04083e-17L-0.3105 -1.04083e-17M-0.2105 -0.0601429L-0.3105 -0.0601429M-0.2105 -0.120286L-0.3105 -0.120286M-0.2105 -0.180429L-0.3105 -0.180429M-0.2105 -0.2105L0.2105 -0.2105L0.2105 0.2105L-0.2105 0.2105Z" />
    </defs>
    <use
       xlink:href="#i1"
       fill="url(#i2)"
       id="use12"
       style="fill:#000080" />
    <use
       xlink:href="#i3"
       stroke-width="0.01"
       stroke="#FFFFFF"
       id="use17"
       style="fill:#000080" />
    <defs
       id="defs20">
      <path
         id="i4"
         d="M0.723191 -0.342044L0.803902 -0.40465M0.723191 -0.342044L0.822789 -0.364717M0.686183 -0.411282L0.760368 -0.481498M0.686183 -0.411282L0.783078 -0.443608M0.642566 -0.476559L0.709512 -0.553708M0.642566 -0.476559L0.735826 -0.518227M0.592761 -0.537247L0.651822 -0.620586M0.592761 -0.537247L0.681488 -0.587856M0.537247 -0.592761L0.587856 -0.681488M0.537247 -0.592761L0.620586 -0.651822M0.476559 -0.642566L0.518227 -0.735826M0.476559 -0.642566L0.553708 -0.709512M0.411282 -0.686183L0.443608 -0.783078M0.411282 -0.686183L0.481498 -0.760368M0.342044 -0.723191L0.364717 -0.822789M0.342044 -0.723191L0.40465 -0.803902M0.269512 -0.753235L0.282314 -0.854575M0.269512 -0.753235L0.323906 -0.839694M0.194384 -0.776025L0.197191 -0.878132M0.194384 -0.776025L0.240041 -0.867398M0.117384 -0.791341L0.11017 -0.893232M0.117384 -0.791341L0.153866 -0.88675M0.0392541 -0.799036L0.0220871 -0.899729M0.0392541 -0.799036L0.0662081 -0.897561M-0.0392541 -0.799036L-0.0662081 -0.897561M-0.0392541 -0.799036L-0.0220871 -0.899729M-0.117384 -0.791341L-0.153866 -0.88675M-0.117384 -0.791341L-0.11017 -0.893232M-0.194384 -0.776025L-0.240041 -0.867398M-0.194384 -0.776025L-0.197191 -0.878132M-0.269512 -0.753235L-0.323906 -0.839694M-0.269512 -0.753235L-0.282314 -0.854575M-0.342044 -0.723191L-0.40465 -0.803902M-0.342044 -0.723191L-0.364717 -0.822789M-0.411282 -0.686183L-0.481498 -0.760368M-0.411282 -0.686183L-0.443608 -0.783078M-0.476559 -0.642566L-0.553708 -0.709512M-0.476559 -0.642566L-0.518227 -0.735826M-0.537247 -0.592761L-0.620586 -0.651822M-0.537247 -0.592761L-0.587856 -0.681488M-0.592761 -0.537247L-0.681488 -0.587856M-0.592761 -0.537247L-0.651822 -0.620586M-0.642566 -0.476559L-0.735826 -0.518227M-0.642566 -0.476559L-0.709512 -0.553708M-0.686183 -0.411282L-0.783078 -0.443608M-0.686183 -0.411282L-0.760368 -0.481498M-0.723191 -0.342044L-0.822789 -0.364717M-0.723191 -0.342044L-0.803902 -0.40465M-0.753235 -0.269512L-0.854575 -0.282314M-0.753235 -0.269512L-0.839694 -0.323906M-0.776025 -0.194384L-0.878132 -0.197191M-0.776025 -0.194384L-0.867398 -0.240041M-0.791341 -0.117384L-0.893232 -0.11017M-0.791341 -0.117384L-0.88675 -0.153866M-0.799036 -0.0392541L-0.899729 -0.0220871M-0.799036 -0.0392541L-0.897561 -0.0662081M-0.799036 0.0392541L-0.897561 0.0662081M-0.799036 0.0392541L-0.899729 0.0220871M-0.791341 0.117384L-0.88675 0.153866M-0.791341 0.117384L-0.893232 0.11017M-0.776025 0.194384L-0.867398 0.240041M-0.776025 0.194384L-0.878132 0.197191M-0.753235 0.269512L-0.839694 0.323906M-0.753235 0.269512L-0.854575 0.282314M-0.723191 0.342044L-0.803902 0.40465M-0.723191 0.342044L-0.822789 0.364717M-0.686183 0.411282L-0.760368 0.481498M-0.686183 0.411282L-0.783078 0.443608M-0.642566 0.476559L-0.709512 0.553708M-0.642566 0.476559L-0.735826 0.518227M-0.592761 0.537247L-0.651822 0.620586M-0.592761 0.537247L-0.681488 0.587856M-0.537247 0.592761L-0.587856 0.681488M-0.537247 0.592761L-0.620586 0.651822M-0.476559 0.642566L-0.518227 0.735826M-0.476559 0.642566L-0.553708 0.709512M-0.411282 0.686183L-0.443608 0.783078M-0.411282 0.686183L-0.481498 0.760368M-0.342044 0.723191L-0.364717 0.822789M-0.342044 0.723191L-0.40465 0.803902M-0.269512 0.753235L-0.282314 0.854575M-0.269512 0.753235L-0.323906 0.839694M-0.194384 0.776025L-0.197191 0.878132M-0.194384 0.776025L-0.240041 0.867398M-0.117384 0.791341L-0.11017 0.893232M-0.117384 0.791341L-0.153866 0.88675M-0.0392541 0.799036L-0.0220871 0.899729M-0.0392541 0.799036L-0.0662081 0.897561M0.0392541 0.799036L0.0662081 0.897561M0.0392541 0.799036L0.0220871 0.899729M0.117384 0.791341L0.153866 0.88675M0.117384 0.791341L0.11017 0.893232M0.194384 0.776025L0.240041 0.867398M0.194384 0.776025L0.197191 0.878132M0.269512 0.753235L0.323906 0.839694M0.269512 0.753235L0.282314 0.854575M0.342044 0.723191L0.40465 0.803902M0.342044 0.723191L0.364717 0.822789M0.411282 0.686183L0.481498 0.760368M0.411282 0.686183L0.443608 0.783078M0.476559 0.642566L0.553708 0.709512M0.476559 0.642566L0.518227 0.735826M0.537247 0.592761L0.620586 0.651822M0.537247 0.592761L0.587856 0.681488M0.592761 0.537247L0.681488 0.587856M0.592761 0.537247L0.651822 0.620586M0.642566 0.476559L0.735826 0.518227M0.642566 0.476559L0.709512 0.553708M0.686183 0.411282L0.783078 0.443608M0.686183 0.411282L0.760368 0.481498M0.723191 0.342044L0.822789 0.364717M0.723191 0.342044L0.803902 0.40465M0.753235 0.269512L0.854575 0.282314M0.753235 0.269512L0.839694 0.323906M0.776025 0.194384L0.878132 0.197191M0.776025 0.194384L0.867398 0.240041M0.791341 0.117384L0.893232 0.11017M0.791341 0.117384L0.88675 0.153866M0.799036 0.0392541L0.899729 0.0220871M0.799036 0.0392541L0.897561 0.0662081M0.799036 -0.0392541L0.897561 -0.0662081M0.799036 -0.0392541L0.899729 -0.0220871M0.791341 -0.117384L0.88675 -0.153866M0.791341 -0.117384L0.893232 -0.11017M0.776025 -0.194384L0.867398 -0.240041M0.776025 -0.194384L0.878132 -0.197191M0.753235 -0.269512L0.839694 -0.323906M0.753235 -0.269512L0.854575 -0.282314M0.617345 -0.329978L0.686183 -0.411282M0.617345 -0.329978L0.723191 -0.342044M0.541107 -0.444075L0.592761 -0.537247M0.541107 -0.444075L0.642566 -0.476559M0.444075 -0.541107L0.476559 -0.642566M0.444075 -0.541107L0.537247 -0.592761M0.329978 -0.617345L0.342044 -0.723191M0.329978 -0.617345L0.411282 -0.686183M0.203199 -0.669858L0.194384 -0.776025M0.203199 -0.669858L0.269512 -0.753235M0.068612 -0.696629L0.0392541 -0.799036M0.068612 -0.696629L0.117384 -0.791341M-0.068612 -0.696629L-0.117384 -0.791341M-0.068612 -0.696629L-0.0392541 -0.799036M-0.203199 -0.669858L-0.269512 -0.753235M-0.203199 -0.669858L-0.194384 -0.776025M-0.329978 -0.617345L-0.411282 -0.686183M-0.329978 -0.617345L-0.342044 -0.723191M-0.444075 -0.541107L-0.537247 -0.592761M-0.444075 -0.541107L-0.476559 -0.642566M-0.541107 -0.444075L-0.642566 -0.476559M-0.541107 -0.444075L-0.592761 -0.537247M-0.617345 -0.329978L-0.723191 -0.342044M-0.617345 -0.329978L-0.686183 -0.411282M-0.669858 -0.203199L-0.776025 -0.194384M-0.669858 -0.203199L-0.753235 -0.269512M-0.696629 -0.068612L-0.799036 -0.0392541M-0.696629 -0.068612L-0.791341 -0.117384M-0.696629 0.068612L-0.791341 0.117384M-0.696629 0.068612L-0.799036 0.0392541M-0.669858 0.203199L-0.753235 0.269512M-0.669858 0.203199L-0.776025 0.194384M-0.617345 0.329978L-0.686183 0.411282M-0.617345 0.329978L-0.723191 0.342044M-0.541107 0.444075L-0.592761 0.537247M-0.541107 0.444075L-0.642566 0.476559M-0.444075 0.541107L-0.476559 0.642566M-0.444075 0.541107L-0.537247 0.592761M-0.329978 0.617345L-0.342044 0.723191M-0.329978 0.617345L-0.411282 0.686183M-0.203199 0.669858L-0.194384 0.776025M-0.203199 0.669858L-0.269512 0.753235M-0.068612 0.696629L-0.0392541 0.799036M-0.068612 0.696629L-0.117384 0.791341M0.068612 0.696629L0.117384 0.791341M0.068612 0.696629L0.0392541 0.799036M0.203199 0.669858L0.269512 0.753235M0.203199 0.669858L0.194384 0.776025M0.329978 0.617345L0.411282 0.686183M0.329978 0.617345L0.342044 0.723191M0.444075 0.541107L0.537247 0.592761M0.444075 0.541107L0.476559 0.642566M0.541107 0.444075L0.642566 0.476559M0.541107 0.444075L0.592761 0.537247M0.617345 0.329978L0.723191 0.342044M0.617345 0.329978L0.686183 0.411282M0.669858 0.203199L0.776025 0.194384M0.669858 0.203199L0.753235 0.269512M0.696629 0.068612L0.799036 0.0392541M0.696629 0.068612L0.791341 0.117384M0.696629 -0.068612L0.791341 -0.117384M0.696629 -0.068612L0.799036 -0.0392541M0.669858 -0.203199L0.753235 -0.269512M0.669858 -0.203199L0.776025 -0.194384M0.498882 -0.333342L0.541107 -0.444075M0.498882 -0.333342L0.617345 -0.329978M0.333342 -0.498882L0.329978 -0.617345M0.333342 -0.498882L0.444075 -0.541107M0.117054 -0.588471L0.068612 -0.696629M0.117054 -0.588471L0.203199 -0.669858M-0.117054 -0.588471L-0.203199 -0.669858M-0.117054 -0.588471L-0.068612 -0.696629M-0.333342 -0.498882L-0.444075 -0.541107M-0.333342 -0.498882L-0.329978 -0.617345M-0.498882 -0.333342L-0.617345 -0.329978M-0.498882 -0.333342L-0.541107 -0.444075M-0.588471 -0.117054L-0.696629 -0.068612M-0.588471 -0.117054L-0.669858 -0.203199M-0.588471 0.117054L-0.669858 0.203199M-0.588471 0.117054L-0.696629 0.068612M-0.498882 0.333342L-0.541107 0.444075M-0.498882 0.333342L-0.617345 0.329978M-0.333342 0.498882L-0.329978 0.617345M-0.333342 0.498882L-0.444075 0.541107M-0.117054 0.588471L-0.068612 0.696629M-0.117054 0.588471L-0.203199 0.669858M0.117054 0.588471L0.203199 0.669858M0.117054 0.588471L0.068612 0.696629M0.333342 0.498882L0.444075 0.541107M0.333342 0.498882L0.329978 0.617345M0.498882 0.333342L0.617345 0.329978M0.498882 0.333342L0.541107 0.444075M0.588471 0.117054L0.696629 0.068612M0.588471 0.117054L0.669858 0.203199M0.588471 -0.117054L0.669858 -0.203199M0.588471 -0.117054L0.696629 -0.068612M0.353553 -0.353553L0.333342 -0.498882M0.353553 -0.353553L0.498882 -0.333342M-9.18485e-17 -0.5L-0.117054 -0.588471M-9.18485e-17 -0.5L0.117054 -0.588471M-0.353553 -0.353553L-0.498882 -0.333342M-0.353553 -0.353553L-0.333342 -0.498882M-0.5 6.12323e-17L-0.588471 0.117054M-0.5 6.12323e-17L-0.588471 -0.117054M-0.353553 0.353553L-0.333342 0.498882M-0.353553 0.353553L-0.498882 0.333342M3.06162e-17 0.5L0.117054 0.588471M3.06162e-17 0.5L-0.117054 0.588471M0.353553 0.353553L0.498882 0.333342M0.353553 0.353553L0.333342 0.498882M0.5 0L0.588471 -0.117054M0.5 0L0.588471 0.117054M0.212132 -0.212132L0.353553 -0.353553M-5.51091e-17 -0.3L-9.18485e-17 -0.5M-0.212132 -0.212132L-0.353553 -0.353553M-0.3 3.67394e-17L-0.5 6.12323e-17M-0.212132 0.212132L-0.353553 0.353553M1.83697e-17 0.3L3.06162e-17 0.5M0.212132 0.212132L0.353553 0.353553M0.3 0L0.5 0" />
    </defs>
    <use
       xlink:href="#i4"
       stroke-width="0.01"
       stroke-linecap="round"
       stroke="#FFFFFF"
       id="use22"
       style="fill:#000080" />
  </g>
  <text
     xml:space="preserve"
     style="font-style:normal;font-variant:normal;font-weight:normal;font-stretch:normal;font-size:27.9902px;line-height:0.75;font-family:'Fira Code';-inkscape-font-specification:'Fira Code';fill:#ffffff;fill-opacity:1;stroke:none;stroke-width:0.437348"
     x="74.418488"
     y="109.65562"
     id="text2498"
     transform="scale(1.0934157,0.91456525)"><tspan
       sodipodi:role="line"
       id="tspan2496"
       style="font-style:normal;font-variant:normal;font-weight:normal;font-stretch:normal;font-size:27.9902px;font-family:'Fira Code';-inkscape-font-specification:'Fira Code';fill:#ffffff;stroke-width:0.437348"
       x="74.418488"
       y="109.65562">A0</tspan><tspan
       sodipodi:role="line"
       style="font-style:normal;font-variant:normal;font-weight:normal;font-stretch:normal;font-size:27.9902px;font-family:'Fira Code';-inkscape-font-specification:'Fira Code';fill:#ffffff;stroke-width:0.437348"
       x="74.418488"
       y="130.64827"
       id="tspan3418">⊤⊥</tspan></text>
  <g
     inkscape:groupmode="layer"
     id="layer1"
     inkscape:label="Layer 1" />
  <g
     inkscape:groupmode="layer"
     id="layer2"
     inkscape:label="Layer 2">
    <text
       xml:space="preserve"
       style="font-style:normal;font-variant:normal;font-weight:normal;font-stretch:normal;font-size:9.46666px;line-height:0.85;font-family:'Fira Code';-inkscape-font-specification:'Fira Code';fill:#ffffff;stroke-width:0.25357"
       id="text43291"
       x="75.440283"
       y="35.551127"><tspan
         id="tspan43289"
         style="font-style:normal;font-variant:normal;font-weight:normal;font-stretch:normal;font-size:9.46666px;font-family:'Fira Code';-inkscape-font-specification:'Fira Code';fill:#ffffff;stroke-width:0.25357" /></text>
  </g>
  <ellipse
     style="fill:#000080;fill-opacity:1;fill-rule:nonzero;stroke:none;stroke-width:4.99999;stroke-miterlimit:4;stroke-dasharray:none;stroke-opacity:1;paint-order:stroke fill markers"
     id="path122979"
     cx="95.427452"
     cy="21.403326"
     rx="1.9584191"
     ry="1.4782729" />
  <text
     xml:space="preserve"
     style="font-style:normal;font-variant:normal;font-weight:normal;font-stretch:normal;font-size:11.28888889px;line-height:0.85;font-family:'Fira Code';-inkscape-font-specification:'Fira Code';font-variant-ligatures:normal;font-variant-caps:normal;font-variant-numeric:normal;font-variant-east-asian:normal;fill:#ffffff;stroke-width:5;stroke:#000080;stroke-miterlimit:4;stroke-dasharray:none;fill-rule:nonzero;paint-order:stroke fill markers"
     id="text31038"><textPath
       xlink:href="#ellipse105729"
       id="textPath105731">ens paris-saclay</textPath></text>
  <text
     xml:space="preserve"
     style="font-size:19.7556px;line-height:0.85;font-family:sans-serif;stroke-width:0.264583"
     x="189.9729"
     y="102.20871"
     id="text65229"><tspan
       sodipodi:role="line"
       id="tspan65227"
       style="stroke-width:0.264583"></tspan></text>
  <ellipse
     style="fill:#000080;fill-opacity:1;fill-rule:nonzero;stroke:none;stroke-width:21.8967;stroke-miterlimit:4;stroke-dasharray:none;stroke-opacity:1;paint-order:stroke fill markers"
     id="path114255"
     cx="115.51446"
     cy="165.74541"
     rx="1.1662438"
     ry="1.8678598" />
  <ellipse
     style="fill:#000080;fill-opacity:1;fill-rule:nonzero;stroke:none;stroke-width:3;stroke-miterlimit:4;stroke-dasharray:none;stroke-opacity:1;paint-order:stroke fill markers"
     id="path123327"
     cx="67.370438"
     cy="158.93126"
     rx="1.6615142"
     ry="1.7973666" />
  <text
     xml:space="preserve"
     style="font-style:normal;font-variant:normal;font-weight:normal;font-stretch:normal;font-size:11.28888889px;line-height:0.85;font-family:'Fira Code';-inkscape-font-specification:'Fira Code';fill:#ffffff;stroke-width:3;stroke:#000080;stroke-opacity:1;stroke-miterlimit:4;stroke-dasharray:none;paint-order:stroke fill markers"
     id="text93310"><textPath
       xlink:href="#path105727"
       id="textPath105927"><tspan
         id="tspan93308"
         style="font-style:normal;font-variant:normal;font-weight:normal;font-stretch:normal;font-family:'Fira Code';-inkscape-font-specification:'Fira Code';fill:#ffffff;stroke-width:3;font-size:11.28888889px;stroke:#000080;stroke-opacity:1;stroke-miterlimit:4;stroke-dasharray:none;paint-order:stroke fill markers">informatique</tspan></textPath></text>
  <ellipse
     style="fill:#000080;fill-opacity:1;fill-rule:nonzero;stroke:none;stroke-width:3;stroke-miterlimit:4;stroke-dasharray:none;stroke-opacity:1;paint-order:stroke fill markers"
     id="path123279"
     cx="92.190895"
     cy="28.480268"
     rx="1.3166867"
     ry="1.140784" />
  <ellipse
     style="fill:#000080;fill-opacity:1;fill-rule:nonzero;stroke:none;stroke-width:3;stroke-miterlimit:4;stroke-dasharray:none;stroke-opacity:1;paint-order:stroke fill markers"
     id="path123303"
     cx="92.641495"
     cy="29.128063"
     rx="0.021374097"
     ry="0.4204776" />
  <ellipse
     style="fill:#000080;fill-opacity:1;fill-rule:nonzero;stroke:none;stroke-width:3;stroke-miterlimit:4;stroke-dasharray:none;stroke-opacity:1;paint-order:stroke fill markers"
     id="path123305"
     cx="91.994576"
     cy="29.498247"
     rx="1.1442244"
     ry="0.83885288" />
  <ellipse
     style="fill:#000080;fill-opacity:1;fill-rule:nonzero;stroke:none;stroke-width:3;stroke-miterlimit:4;stroke-dasharray:none;stroke-opacity:1;paint-order:stroke fill markers"
     id="path123307"
     cx="93.595505"
     cy="27.382679"
     rx="1.2462313"
     ry="1.3315587" />
  <ellipse
     style="fill:#000080;fill-opacity:1;fill-rule:nonzero;stroke:none;stroke-width:3;stroke-miterlimit:4;stroke-dasharray:none;stroke-opacity:1;paint-order:stroke fill markers"
     id="path123309"
     cx="120.62444"
     cy="28.942743"
     rx="0.47547492"
     ry="0.42455122" />
  <ellipse
     style="fill:#000080;fill-opacity:1;fill-rule:nonzero;stroke:none;stroke-width:3;stroke-miterlimit:4;stroke-dasharray:none;stroke-opacity:1;paint-order:stroke fill markers"
     id="path123311"
     cx="133.5451"
     cy="35.714874"
     rx="0.85289878"
     ry="1.2667549" />
  <ellipse
     style="fill:#000080;fill-opacity:1;fill-rule:nonzero;stroke:none;stroke-width:3;stroke-miterlimit:4;stroke-dasharray:none;stroke-opacity:1;paint-order:stroke fill markers"
     id="path123313"
     cx="135.06754"
     cy="36.604771"
     rx="0.12584603"
     ry="1.3309202" />
  <ellipse
     style="fill:#000080;fill-opacity:1;fill-rule:nonzero;stroke:none;stroke-width:3;stroke-miterlimit:4;stroke-dasharray:none;stroke-opacity:1;paint-order:stroke fill markers"
     id="path123315"
     cx="135.44223"
     cy="35.013741"
     rx="0.37520865"
     ry="0.126266" />
  <ellipse
     style="fill:#000080;fill-opacity:1;fill-rule:nonzero;stroke:none;stroke-width:3;stroke-miterlimit:4;stroke-dasharray:none;stroke-opacity:1;paint-order:stroke fill markers"
     id="path123317"
     cx="135.70792"
     cy="35.769157"
     rx="1.051491"
     ry="1.2906597" />
  <ellipse
     style="fill:#000080;fill-opacity:1;fill-rule:nonzero;stroke:none;stroke-width:3;stroke-miterlimit:4;stroke-dasharray:none;stroke-opacity:1;paint-order:stroke fill markers"
     id="path123319"
     cx="134.34068"
     cy="37.287518"
     rx="1.077131"
     ry="0.92502457" />
  <ellipse
     style="fill:#000080;fill-opacity:1;fill-rule:nonzero;stroke:none;stroke-width:3;stroke-miterlimit:4;stroke-dasharray:none;stroke-opacity:1;paint-order:stroke fill markers"
     id="path123321"
     cx="134.56308"
     cy="36.229916"
     rx="0.66004562"
     ry="0.63695616" />
  <ellipse
     style="fill:#000080;fill-opacity:1;fill-rule:nonzero;stroke:none;stroke-width:3;stroke-miterlimit:4;stroke-dasharray:none;stroke-opacity:1;paint-order:stroke fill markers"
     id="path123323"
     cx="145.20345"
     cy="45.766945"
     rx="1.0283899"
     ry="0.80811244" />
  <ellipse
     style="fill:#000080;fill-opacity:1;fill-rule:nonzero;stroke:none;stroke-width:3;stroke-miterlimit:4;stroke-dasharray:none;stroke-opacity:1;paint-order:stroke fill markers"
     id="path123325"
     cx="145.9619"
     cy="44.494595"
     rx="0.69441795"
     ry="0.71455467" />
  <ellipse
     style="fill:#000080;fill-opacity:1;fill-rule:nonzero;stroke:none;stroke-width:3;stroke-miterlimit:4;stroke-dasharray:none;stroke-opacity:1;paint-order:stroke fill markers"
     id="path123475"
     cx="66.835106"
     cy="165.17038"
     rx="0.77919632"
     ry="1.3126817" />
  <ellipse
     style="fill:#000080;fill-opacity:1;fill-rule:nonzero;stroke:none;stroke-width:3;stroke-miterlimit:4;stroke-dasharray:none;stroke-opacity:1;paint-order:stroke fill markers"
     id="path123477"
     cx="67.42572"
     cy="163.78035"
     rx="0.64414597"
     ry="0.96717948" />
  <ellipse
     style="fill:#000080;fill-opacity:1;fill-rule:nonzero;stroke:none;stroke-width:3;stroke-miterlimit:4;stroke-dasharray:none;stroke-opacity:1;paint-order:stroke fill markers"
     id="path123479"
     cx="91.440819"
     cy="173.25598"
     rx="1.1955838"
     ry="0.76207787" />
  <ellipse
     style="fill:#000080;fill-opacity:1;fill-rule:nonzero;stroke:none;stroke-width:3;stroke-miterlimit:4;stroke-dasharray:none;stroke-opacity:1;paint-order:stroke fill markers"
     id="path123481"
     cx="106.61743"
     cy="172.05548"
     rx="0.7512455"
     ry="0.74725801" />
  <ellipse
     style="fill:#000080;fill-opacity:1;fill-rule:nonzero;stroke:none;stroke-width:3;stroke-miterlimit:4;stroke-dasharray:none;stroke-opacity:1;paint-order:stroke fill markers"
     id="path123483"
     cx="106.23887"
     cy="26.387592"
     rx="0.4122037"
     ry="0.55943197" />
  <ellipse
     style="fill:#000080;fill-opacity:1;fill-rule:nonzero;stroke:none;stroke-width:3;stroke-miterlimit:4;stroke-dasharray:none;stroke-opacity:1;paint-order:stroke fill markers"
     id="path123605"
     cx="65.288506"
     cy="35.843433"
     rx="2.3434587"
     ry="1.626074" />
  <ellipse
     style="fill:#000080;fill-opacity:1;fill-rule:nonzero;stroke:none;stroke-width:3;stroke-miterlimit:4;stroke-dasharray:none;stroke-opacity:1;paint-order:stroke fill markers"
     id="path123607"
     cx="66.863449"
     cy="34.34549"
     rx="1.6065195"
     ry="0.70931387" />
  <ellipse
     style="fill:#000080;fill-opacity:1;fill-rule:nonzero;stroke:none;stroke-width:3;stroke-miterlimit:4;stroke-dasharray:none;stroke-opacity:1;paint-order:stroke fill markers"
     id="path123609"
     cx="66.871185"
     cy="37.44379"
     rx="1.351274"
     ry="1.0335683" />
  <ellipse
     style="fill:#000080;fill-opacity:1;fill-rule:nonzero;stroke:none;stroke-width:3;stroke-miterlimit:4;stroke-dasharray:none;stroke-opacity:1;paint-order:stroke fill markers"
     id="path123611"
     cx="66.9366"
     cy="33.177067"
     rx="1.8511747"
     ry="1.1341857" />
  <ellipse
     style="fill:#000080;fill-opacity:1;fill-rule:nonzero;stroke:none;stroke-width:3;stroke-miterlimit:4;stroke-dasharray:none;stroke-opacity:1;paint-order:stroke fill markers"
     id="path123613"
     cx="66.140755"
     cy="32.515125"
     rx="1.739897"
     ry="0.085835345" />
  <ellipse
     style="fill:#000080;fill-opacity:1;fill-rule:nonzero;stroke:none;stroke-width:3;stroke-miterlimit:4;stroke-dasharray:none;stroke-opacity:1;paint-order:stroke fill markers"
     id="path123615"
     cx="66.987694"
     cy="32.272026"
     rx="2.0216696"
     ry="0.47171003" />
  <ellipse
     style="fill:#000080;fill-opacity:1;fill-rule:nonzero;stroke:none;stroke-width:3;stroke-miterlimit:4;stroke-dasharray:none;stroke-opacity:1;paint-order:stroke fill markers"
     id="path123617"
     cx="66.007721"
     cy="38.225307"
     rx="0.64907926"
     ry="0.4069353" />
  <ellipse
     style="fill:#000080;fill-opacity:1;fill-rule:nonzero;stroke:none;stroke-width:3;stroke-miterlimit:4;stroke-dasharray:none;stroke-opacity:1;paint-order:stroke fill markers"
     id="path123619"
     cx="66.405022"
     cy="31.717888"
     rx="1.5117627"
     ry="0.45254061" />
  <ellipse
     style="fill:#000080;fill-opacity:1;fill-rule:nonzero;stroke:none;stroke-width:3;stroke-miterlimit:4;stroke-dasharray:none;stroke-opacity:1;paint-order:stroke fill markers"
     id="path123621"
     cx="93.210014"
     cy="31.060518"
     rx="1.3061763"
     ry="0.9160651" />
  <ellipse
     style="fill:#000080;fill-opacity:1;fill-rule:nonzero;stroke:none;stroke-width:3;stroke-miterlimit:4;stroke-dasharray:none;stroke-opacity:1;paint-order:stroke fill markers"
     id="path123623"
     cx="133.80991"
     cy="38.314716"
     rx="0.37603277"
     ry="0.26508835" />
</svg>
